<svg viewBox="0 0 2568 2568" fill="none" xmlns="http://www.w3.org/2000/svg"><path d="M1284 2564c706.92 0 1280-573.08 1280-1280C2564 577.076 1990.92 4 1284 4 577.076 4 4 577.076 4 1284c0 706.92 573.076 1280 1280 1280z" stroke="#fff" stroke-width="8" stroke-miterlimit="10"/><path d="M1284 2548.2c698.2 0 1264.2-566 1264.2-1264.2 0-698.198-566-1264.2-1264.2-1264.2C585.802 19.8 19.8 585.802 19.8 1284c0 698.2 566.002 1264.2 1264.2 1264.2z" stroke="#fff" stroke-width="8" stroke-miterlimit="10"/><path d="M1284 2532.4c689.47 0 1248.4-558.93 1248.4-1248.4 0-689.472-558.93-1248.4-1248.4-1248.4C594.529 35.6 35.602 594.528 35.602 1284c0 689.47 558.927 1248.4 1248.398 1248.4z" stroke="#fff" stroke-width="8" stroke-miterlimit="10"/><path d="M1284 2516.6c680.74 0 1232.6-551.85 1232.6-1232.6 0-680.746-551.86-1232.6-1232.6-1232.6C603.252 51.4 51.398 603.254 51.398 1284c0 680.75 551.854 1232.6 1232.602 1232.6z" stroke="#fff" stroke-width="8" stroke-miterlimit="10"/><path d="M1284 2500.8c672.02 0 1216.8-544.78 1216.8-1216.8S1956.02 67.2 1284 67.2C611.979 67.2 67.2 611.98 67.2 1284S611.978 2500.8 1284 2500.8z" stroke="#fff" stroke-width="8" stroke-miterlimit="10"/><path d="M1284 2485c663.29 0 1201-537.71 1201-1201 0-663.294-537.71-1201-1201-1201C620.706 83 83 620.706 83 1284c0 663.29 537.706 1201 1201 1201z" stroke="#fff" stroke-width="8" stroke-miterlimit="10"/><path d="M1284 2469.2c654.57 0 1185.2-530.63 1185.2-1185.2 0-654.568-530.63-1185.2-1185.2-1185.2C629.433 98.8 98.8 629.432 98.8 1284c0 654.57 530.633 1185.2 1185.2 1185.2z" stroke="#fff" stroke-width="8" stroke-miterlimit="10"/><path d="M1284 2453.4c645.84 0 1169.4-523.56 1169.4-1169.4 0-645.842-523.56-1169.4-1169.4-1169.4-645.84 0-1169.398 523.558-1169.398 1169.4 0 645.84 523.558 1169.4 1169.398 1169.4z" stroke="#fff" stroke-width="8" stroke-miterlimit="10"/><path d="M1284 2437.6c637.11 0 1153.6-516.48 1153.6-1153.6 0-637.116-516.49-1153.6-1153.6-1153.6-637.117 0-1153.602 516.484-1153.602 1153.6 0 637.12 516.485 1153.6 1153.602 1153.6z" stroke="#fff" stroke-width="8" stroke-miterlimit="10"/><path d="M1284 2421.8c628.39 0 1137.8-509.41 1137.8-1137.8 0-628.39-509.41-1137.8-1137.8-1137.8-628.39 0-1137.801 509.41-1137.801 1137.8 0 628.39 509.411 1137.8 1137.801 1137.8z" stroke="#fff" stroke-width="8" stroke-miterlimit="10"/><path d="M1284 2406c619.66 0 1122-502.34 1122-1122 0-619.664-502.34-1122-1122-1122-619.664 0-1122 502.336-1122 1122 0 619.66 502.336 1122 1122 1122z" stroke="#fff" stroke-width="8" stroke-miterlimit="10"/><path d="M1284 2390.2c610.94 0 1106.2-495.26 1106.2-1106.2 0-610.937-495.26-1106.2-1106.2-1106.2-610.937 0-1106.199 495.263-1106.199 1106.2 0 610.94 495.262 1106.2 1106.199 1106.2z" stroke="#fff" stroke-width="8" stroke-miterlimit="10"/><path d="M1284 2374.4c602.21 0 1090.4-488.19 1090.4-1090.4 0-602.211-488.19-1090.4-1090.4-1090.4S193.602 681.789 193.602 1284c0 602.21 488.188 1090.4 1090.398 1090.4z" stroke="#fff" stroke-width="8" stroke-miterlimit="10"/><path d="M1284 2358.6c593.48 0 1074.6-481.11 1074.6-1074.6 0-593.485-481.12-1074.6-1074.6-1074.6-593.487 0-1074.602 481.115-1074.602 1074.6 0 593.49 481.115 1074.6 1074.602 1074.6z" stroke="#fff" stroke-width="8" stroke-miterlimit="10"/><path d="M1284 2342.8c584.76 0 1058.8-474.04 1058.8-1058.8 0-584.759-474.04-1058.8-1058.8-1058.8S225.199 699.241 225.199 1284c0 584.76 474.041 1058.8 1058.801 1058.8z" stroke="#fff" stroke-width="8" stroke-miterlimit="10"/><path d="M1284 2327c576.03 0 1043-466.97 1043-1043 0-576.033-466.97-1043-1043-1043-576.033 0-1043 466.967-1043 1043 0 576.03 466.967 1043 1043 1043z" stroke="#fff" stroke-width="8" stroke-miterlimit="10"/><path d="M1284 2311.2c567.31 0 1027.2-459.89 1027.2-1027.2 0-567.307-459.89-1027.2-1027.2-1027.2-567.306 0-1027.199 459.893-1027.199 1027.2 0 567.31 459.893 1027.2 1027.199 1027.2z" stroke="#fff" stroke-width="8" stroke-miterlimit="10"/><path d="M1284 2295.4c558.58 0 1011.4-452.82 1011.4-1011.4 0-558.581-452.82-1011.4-1011.4-1011.4-558.579 0-1011.398 452.819-1011.398 1011.4 0 558.58 452.819 1011.4 1011.398 1011.4z" stroke="#fff" stroke-width="8" stroke-miterlimit="10"/><path d="M1284 2279.6c549.85 0 995.6-445.75 995.6-995.6 0-549.855-445.75-995.6-995.6-995.6-549.856 0-995.602 445.745-995.602 995.6 0 549.85 445.746 995.6 995.602 995.6z" stroke="#fff" stroke-width="8" stroke-miterlimit="10"/><path d="M1284 2263.8c541.13 0 979.8-438.67 979.8-979.8 0-541.129-438.67-979.8-979.8-979.8-541.129 0-979.801 438.671-979.801 979.8 0 541.13 438.672 979.8 979.801 979.8z" stroke="#fff" stroke-width="8" stroke-miterlimit="10"/><path d="M1284 2248c532.4 0 964-431.6 964-964 0-532.403-431.6-964-964-964-532.403 0-964 431.597-964 964 0 532.4 431.597 964 964 964z" stroke="#fff" stroke-width="8" stroke-miterlimit="10"/><path d="M1284 2232.1c523.62 0 948.1-424.48 948.1-948.1 0-523.621-424.48-948.1-948.1-948.1-523.623 0-948.102 424.479-948.102 948.1 0 523.62 424.479 948.1 948.102 948.1z" stroke="#fff" stroke-width="8" stroke-miterlimit="10"/><path d="M1284 2216.3c514.89 0 932.3-417.4 932.3-932.3 0-514.895-417.41-932.3-932.3-932.3-514.896 0-932.301 417.405-932.301 932.3 0 514.9 417.405 932.3 932.301 932.3z" stroke="#fff" stroke-width="8" stroke-miterlimit="10"/><path d="M1284 2200.5c506.17 0 916.5-410.33 916.5-916.5 0-506.169-410.33-916.5-916.5-916.5-506.169 0-916.5 410.331-916.5 916.5 0 506.17 410.331 916.5 916.5 916.5z" stroke="#fff" stroke-width="8" stroke-miterlimit="10"/><path d="M1284 2184.7c497.44 0 900.7-403.26 900.7-900.7 0-497.443-403.26-900.7-900.7-900.7-497.442 0-900.699 403.257-900.699 900.7 0 497.44 403.257 900.7 900.699 900.7z" stroke="#fff" stroke-width="8" stroke-miterlimit="10"/><path d="M1284 2168.9c488.72 0 884.9-396.18 884.9-884.9 0-488.717-396.18-884.9-884.9-884.9-488.715 0-884.898 396.183-884.898 884.9 0 488.72 396.183 884.9 884.898 884.9z" stroke="#fff" stroke-width="8" stroke-miterlimit="10"/><path d="M1284 2153.1c479.99 0 869.1-389.11 869.1-869.1 0-479.991-389.11-869.1-869.1-869.1-479.992 0-869.102 389.109-869.102 869.1 0 479.99 389.11 869.1 869.102 869.1z" stroke="#fff" stroke-width="8" stroke-miterlimit="10"/><path d="M1284 2137.3c471.26 0 853.3-382.04 853.3-853.3 0-471.265-382.04-853.3-853.3-853.3-471.265 0-853.301 382.035-853.301 853.3 0 471.26 382.036 853.3 853.301 853.3z" stroke="#fff" stroke-width="8" stroke-miterlimit="10"/><path d="M1284 2121.5c462.54 0 837.5-374.96 837.5-837.5 0-462.538-374.96-837.5-837.5-837.5-462.538 0-837.5 374.962-837.5 837.5 0 462.54 374.962 837.5 837.5 837.5z" stroke="#fff" stroke-width="8" stroke-miterlimit="10"/><path d="M1284 2105.7c453.81 0 821.7-367.89 821.7-821.7 0-453.812-367.89-821.7-821.7-821.7-453.812 0-821.699 367.888-821.699 821.7 0 453.81 367.887 821.7 821.699 821.7z" stroke="#fff" stroke-width="8" stroke-miterlimit="10"/><path d="M1284 2089.9c445.09 0 805.9-360.81 805.9-805.9 0-445.086-360.81-805.9-805.9-805.9-445.085 0-805.898 360.814-805.898 805.9 0 445.09 360.813 805.9 805.898 805.9z" stroke="#fff" stroke-width="8" stroke-miterlimit="10"/><path d="M1284 2074.1c436.36 0 790.1-353.74 790.1-790.1S1720.36 493.9 1284 493.9c-436.362 0-790.102 353.74-790.102 790.1s353.74 790.1 790.102 790.1z" stroke="#fff" stroke-width="8" stroke-miterlimit="10"/><path d="M1284 2058.3c427.63 0 774.3-346.67 774.3-774.3 0-427.634-346.67-774.3-774.3-774.3-427.635 0-774.301 346.666-774.301 774.3 0 427.63 346.666 774.3 774.301 774.3z" stroke="#fff" stroke-width="8" stroke-miterlimit="10"/><path d="M1284 2042.5c418.91 0 758.5-339.59 758.5-758.5 0-418.908-339.59-758.5-758.5-758.5-418.908 0-758.5 339.592-758.5 758.5 0 418.91 339.592 758.5 758.5 758.5z" stroke="#fff" stroke-width="8" stroke-miterlimit="10"/><path d="M1284 2026.7c410.18 0 742.7-332.52 742.7-742.7 0-410.182-332.52-742.7-742.7-742.7-410.181 0-742.699 332.518-742.699 742.7 0 410.18 332.518 742.7 742.699 742.7z" stroke="#fff" stroke-width="8" stroke-miterlimit="10"/><path d="M1284 2010.9c401.46 0 726.9-325.44 726.9-726.9 0-401.456-325.44-726.9-726.9-726.9-401.454 0-726.898 325.444-726.898 726.9 0 401.46 325.444 726.9 726.898 726.9z" stroke="#fff" stroke-width="8" stroke-miterlimit="10"/><path d="M1284 1995.1c392.73 0 711.1-318.37 711.1-711.1S1676.73 572.9 1284 572.9c-392.731 0-711.102 318.37-711.102 711.1S891.269 1995.1 1284 1995.1z" stroke="#fff" stroke-width="8" stroke-miterlimit="10"/><path d="M1284 1979.3c384 0 695.3-311.3 695.3-695.3 0-384.004-311.3-695.3-695.3-695.3-384.004 0-695.301 311.296-695.301 695.3 0 384 311.297 695.3 695.301 695.3z" stroke="#fff" stroke-width="8" stroke-miterlimit="10"/><path d="M1284 1963.5c375.28 0 679.5-304.22 679.5-679.5 0-375.277-304.22-679.5-679.5-679.5-375.277 0-679.5 304.223-679.5 679.5 0 375.28 304.223 679.5 679.5 679.5z" stroke="#fff" stroke-width="8" stroke-miterlimit="10"/><path d="M1284 1947.7c366.55 0 663.7-297.15 663.7-663.7 0-366.551-297.15-663.7-663.7-663.7-366.551 0-663.699 297.149-663.699 663.7 0 366.55 297.148 663.7 663.699 663.7z" stroke="#fff" stroke-width="8" stroke-miterlimit="10"/><path d="M1284 1931.9c357.83 0 647.9-290.07 647.9-647.9 0-357.825-290.07-647.9-647.9-647.9-357.824 0-647.898 290.075-647.898 647.9 0 357.83 290.074 647.9 647.898 647.9z" stroke="#fff" stroke-width="8" stroke-miterlimit="10"/><path d="M1284 1916.1c349.1 0 632.1-283 632.1-632.1 0-349.099-283-632.1-632.1-632.1-349.101 0-632.102 283.001-632.102 632.1 0 349.1 283.001 632.1 632.102 632.1z" stroke="#fff" stroke-width="8" stroke-miterlimit="10"/><path d="M1284 1900.3c340.37 0 616.3-275.93 616.3-616.3 0-340.373-275.93-616.3-616.3-616.3-340.374 0-616.301 275.927-616.301 616.3 0 340.37 275.927 616.3 616.301 616.3z" stroke="#fff" stroke-width="8" stroke-miterlimit="10"/><path d="M1284 1884.5c331.65 0 600.5-268.85 600.5-600.5 0-331.647-268.85-600.5-600.5-600.5-331.647 0-600.5 268.853-600.5 600.5 0 331.65 268.853 600.5 600.5 600.5z" stroke="#fff" stroke-width="8" stroke-miterlimit="10"/><path d="M1284 1868.7c322.92 0 584.7-261.78 584.7-584.7 0-322.921-261.78-584.7-584.7-584.7-322.92 0-584.699 261.779-584.699 584.7 0 322.92 261.779 584.7 584.699 584.7z" stroke="#fff" stroke-width="8" stroke-miterlimit="10"/><path d="M1284 1852.9c314.2 0 568.9-254.71 568.9-568.9 0-314.195-254.7-568.9-568.9-568.9-314.193 0-568.898 254.705-568.898 568.9 0 314.19 254.705 568.9 568.898 568.9z" stroke="#fff" stroke-width="8" stroke-miterlimit="10"/><path d="M1284 1837.1c305.47 0 553.1-247.63 553.1-553.1 0-305.469-247.63-553.1-553.1-553.1S730.898 978.531 730.898 1284c0 305.47 247.632 553.1 553.102 553.1z" stroke="#fff" stroke-width="8" stroke-miterlimit="10"/><path d="M1284 1821.3c296.74 0 537.3-240.56 537.3-537.3 0-296.743-240.56-537.3-537.3-537.3-296.743 0-537.301 240.557-537.301 537.3 0 296.74 240.558 537.3 537.301 537.3z" stroke="#fff" stroke-width="8" stroke-miterlimit="10"/><path d="M1284 1805.5c288.02 0 521.5-233.48 521.5-521.5 0-288.017-233.48-521.5-521.5-521.5-288.017 0-521.5 233.483-521.5 521.5 0 288.02 233.483 521.5 521.5 521.5z" stroke="#fff" stroke-width="8" stroke-miterlimit="10"/><path d="M1284 1789.7c279.29 0 505.7-226.41 505.7-505.7 0-279.29-226.41-505.7-505.7-505.7-279.29 0-505.699 226.41-505.699 505.7 0 279.29 226.409 505.7 505.699 505.7z" stroke="#fff" stroke-width="8" stroke-miterlimit="10"/><path d="M1284 1773.9c270.57 0 489.9-219.34 489.9-489.9 0-270.56-219.33-489.9-489.9-489.9-270.56 0-489.898 219.34-489.898 489.9 0 270.56 219.338 489.9 489.898 489.9z" stroke="#fff" stroke-width="8" stroke-miterlimit="10"/><path d="M1284 1758.1c261.84 0 474.1-212.26 474.1-474.1 0-261.84-212.26-474.1-474.1-474.1-261.84 0-474.102 212.26-474.102 474.1 0 261.84 212.262 474.1 474.102 474.1z" stroke="#fff" stroke-width="8" stroke-miterlimit="10"/><path d="M1284 1742.3c253.11 0 458.3-205.19 458.3-458.3S1537.11 825.7 1284 825.7 825.699 1030.89 825.699 1284 1030.89 1742.3 1284 1742.3z" stroke="#fff" stroke-width="8" stroke-miterlimit="10"/><path d="M1284 1726.5c244.39 0 442.5-198.11 442.5-442.5S1528.39 841.5 1284 841.5 841.5 1039.61 841.5 1284s198.11 442.5 442.5 442.5z" stroke="#fff" stroke-width="8" stroke-miterlimit="10"/><path d="M1284 1710.7c235.66 0 426.7-191.04 426.7-426.7S1519.66 857.3 1284 857.3 857.301 1048.34 857.301 1284 1048.34 1710.7 1284 1710.7z" stroke="#fff" stroke-width="8" stroke-miterlimit="10"/><path d="M1284 1694.9c226.94 0 410.9-183.97 410.9-410.9 0-226.93-183.96-410.9-410.9-410.9-226.93 0-410.898 183.97-410.898 410.9 0 226.93 183.968 410.9 410.898 410.9z" stroke="#fff" stroke-width="8" stroke-miterlimit="10"/><path d="M1284 1679.1c218.21 0 395.1-176.89 395.1-395.1 0-218.21-176.89-395.1-395.1-395.1-218.21 0-395.102 176.89-395.102 395.1 0 218.21 176.892 395.1 395.102 395.1z" stroke="#fff" stroke-width="8" stroke-miterlimit="10"/><path d="M1284 1663.3c209.48 0 379.3-169.82 379.3-379.3 0-209.48-169.82-379.3-379.3-379.3-209.48 0-379.301 169.82-379.301 379.3 0 209.48 169.821 379.3 379.301 379.3z" stroke="#fff" stroke-width="8" stroke-miterlimit="10"/><path d="M1284 1647.5c200.76 0 363.5-162.74 363.5-363.5S1484.76 920.5 1284 920.5 920.5 1083.24 920.5 1284s162.74 363.5 363.5 363.5z" stroke="#fff" stroke-width="8" stroke-miterlimit="10"/><path d="M1284 1631.7c192.03 0 347.7-155.67 347.7-347.7S1476.03 936.3 1284 936.3 936.301 1091.97 936.301 1284 1091.97 1631.7 1284 1631.7z" stroke="#fff" stroke-width="8" stroke-miterlimit="10"/><path d="M1284 1615.9c183.3 0 331.9-148.6 331.9-331.9 0-183.3-148.6-331.9-331.9-331.9-183.3 0-331.898 148.6-331.898 331.9 0 183.3 148.598 331.9 331.898 331.9z" stroke="#fff" stroke-width="8" stroke-miterlimit="10"/><path d="M1284 1600c174.52 0 316-141.48 316-316s-141.48-316-316-316-316 141.48-316 316 141.48 316 316 316z" stroke="#fff" stroke-width="8" stroke-miterlimit="10"/><path d="M1284 1584.2c165.8 0 300.2-134.4 300.2-300.2 0-165.8-134.4-300.2-300.2-300.2-165.8 0-300.199 134.4-300.199 300.2 0 165.8 134.399 300.2 300.199 300.2z" stroke="#fff" stroke-width="8" stroke-miterlimit="10"/><path d="M1284 1568.4c157.07 0 284.4-127.33 284.4-284.4S1441.07 999.6 1284 999.6 999.602 1126.93 999.602 1284 1126.93 1568.4 1284 1568.4z" stroke="#fff" stroke-width="8" stroke-miterlimit="10"/><path d="M1284 1552.6c148.34 0 268.6-120.26 268.6-268.6 0-148.34-120.26-268.6-268.6-268.6-148.35 0-268.6 120.26-268.6 268.6 0 148.34 120.25 268.6 268.6 268.6z" stroke="#fff" stroke-width="8" stroke-miterlimit="10"/><path d="M1284 1536.8c139.62 0 252.8-113.18 252.8-252.8s-113.18-252.8-252.8-252.8-252.8 113.18-252.8 252.8 113.18 252.8 252.8 252.8z" stroke="#fff" stroke-width="8" stroke-miterlimit="10"/><path d="M1284 1521c130.89 0 237-106.11 237-237s-106.11-237-237-237-237 106.11-237 237 106.11 237 237 237z" stroke="#fff" stroke-width="8" stroke-miterlimit="10"/><path d="M1284 1505.2c122.17 0 221.2-99.03 221.2-221.2 0-122.17-99.03-221.2-221.2-221.2-122.16 0-221.2 99.03-221.2 221.2 0 122.17 99.04 221.2 221.2 221.2z" stroke="#fff" stroke-width="8" stroke-miterlimit="10"/><path d="M1284 1489.4c113.44 0 205.4-91.96 205.4-205.4 0-113.44-91.96-205.4-205.4-205.4-113.44 0-205.4 91.96-205.4 205.4 0 113.44 91.96 205.4 205.4 205.4z" stroke="#fff" stroke-width="8" stroke-miterlimit="10"/><path d="M1284 1473.6c104.71 0 189.6-84.89 189.6-189.6s-84.89-189.6-189.6-189.6-189.6 84.89-189.6 189.6 84.89 189.6 189.6 189.6z" stroke="#fff" stroke-width="8" stroke-miterlimit="10"/><path d="M1284 1457.8c95.99 0 173.8-77.81 173.8-173.8 0-95.99-77.81-173.8-173.8-173.8-95.99 0-173.8 77.81-173.8 173.8 0 95.99 77.81 173.8 173.8 173.8z" stroke="#fff" stroke-width="8" stroke-miterlimit="10"/><path d="M1284 1442c87.26 0 158-70.74 158-158s-70.74-158-158-158-158 70.74-158 158 70.74 158 158 158z" stroke="#fff" stroke-width="8" stroke-miterlimit="10"/><path d="M1284 1426.2c78.54 0 142.2-63.67 142.2-142.2 0-78.54-63.66-142.2-142.2-142.2-78.53 0-142.2 63.66-142.2 142.2 0 78.53 63.67 142.2 142.2 142.2z" stroke="#fff" stroke-width="8" stroke-miterlimit="10"/><path d="M1284 1410.4c69.81 0 126.4-56.59 126.4-126.4s-56.59-126.4-126.4-126.4-126.4 56.59-126.4 126.4 56.59 126.4 126.4 126.4z" stroke="#fff" stroke-width="8" stroke-miterlimit="10"/><path d="M1284 1394.6c61.08 0 110.6-49.52 110.6-110.6 0-61.08-49.52-110.6-110.6-110.6-61.08 0-110.6 49.52-110.6 110.6 0 61.08 49.52 110.6 110.6 110.6z" stroke="#fff" stroke-width="8" stroke-miterlimit="10"/><path d="M1284 1378.8c52.36 0 94.8-42.44 94.8-94.8s-42.44-94.8-94.8-94.8-94.8 42.44-94.8 94.8 42.44 94.8 94.8 94.8z" stroke="#fff" stroke-width="8" stroke-miterlimit="10"/><path d="M1284 1363c43.63 0 79-35.37 79-79s-35.37-79-79-79-79 35.37-79 79 35.37 79 79 79z" stroke="#fff" stroke-width="8" stroke-miterlimit="10"/><path d="M1284 1347.2c34.91 0 63.2-28.3 63.2-63.2 0-34.9-28.29-63.2-63.2-63.2-34.9 0-63.2 28.3-63.2 63.2 0 34.9 28.3 63.2 63.2 63.2z" stroke="#fff" stroke-width="8" stroke-miterlimit="10"/><path d="M1284 1331.4c26.18 0 47.4-21.22 47.4-47.4s-21.22-47.4-47.4-47.4-47.4 21.22-47.4 47.4 21.22 47.4 47.4 47.4z" stroke="#fff" stroke-width="8" stroke-miterlimit="10"/><path d="M1284 1315.6c17.45 0 31.6-14.15 31.6-31.6 0-17.45-14.15-31.6-31.6-31.6-17.45 0-31.6 14.15-31.6 31.6 0 17.45 14.15 31.6 31.6 31.6z" stroke="#fff" stroke-width="8" stroke-miterlimit="10"/><path d="M1284 1299.8c8.73 0 15.8-7.07 15.8-15.8s-7.07-15.8-15.8-15.8-15.8 7.07-15.8 15.8 7.07 15.8 15.8 15.8z" stroke="#fff" stroke-width="8" stroke-miterlimit="10"/></svg>