<?xml version="1.0" standalone="no"?>
<!DOCTYPE svg PUBLIC "-//W3C//DTD SVG 20010904//EN"
 "http://www.w3.org/TR/2001/REC-SVG-20010904/DTD/svg10.dtd">
<svg version="1.0" xmlns="http://www.w3.org/2000/svg"
 width="700.000000pt" height="700.000000pt" viewBox="0 0 700.000000 700.000000"
 preserveAspectRatio="xMidYMid meet">
<metadata>
Created by potrace 1.11, written by Peter Selinger 2001-2013
</metadata>
<g transform="translate(0.000000,700.000000) scale(0.100000,-0.100000)"
fill="#000000" stroke="none">
<path d="M877 6123 c-4 -3 -7 -1185 -7 -2625 l0 -2618 565 0 565 0 2 1700 3
1700 726 -1118 727 -1117 42 0 42 0 727 1117 726 1118 3 -1700 2 -1700 565 0
565 0 -2 2622 -3 2623 -619 0 -619 0 -691 -1102 c-380 -607 -693 -1103 -696
-1103 -3 0 -316 496 -696 1103 l-691 1102 -615 3 c-338 1 -618 -1 -621 -5z"/>
</g>
</svg>
