<?xml version="1.0" standalone="no"?>
<!DOCTYPE svg PUBLIC "-//W3C//DTD SVG 1.1//EN" "http://www.w3.org/Graphics/SVG/1.1/DTD/svg11.dtd" >
<svg xmlns="http://www.w3.org/2000/svg">
<metadata>
This is a custom SVG webfont generated by Font Squirrel.
Copyright   : Copyright  2011 by Michael Arestad All rights reserved
Designer    : Michael Arestad
</metadata>
<defs>
<font id="LacedRegular" horiz-adv-x="498" >
<font-face units-per-em="1000" ascent="800" descent="-200" />
<missing-glyph horiz-adv-x="500" />
<glyph unicode=" " d="M240 469q0 9 9 9t9 -9v-121q0 -10 -9 -10t-9 10v121zM188 399q-9 0 -9 9t9 9h122q9 0 9 -9t-9 -9h-122zM91 143q-4 8 5 12q8 6 12 -4l66 -133q6 -8 -4 -12q-8 -4 -12 4zM105 154q8 -6 2 -13q-5 -7 -13 -1q-47 35 -75 89t-28 117q0 9 9 9t9 -9q0 -57 27 -109 q25 -49 69 -83zM390 151q4 10 13 4q8 -4 4 -12l-67 -133q-4 -8 -12 -4q-8 3 -4 12zM404 140q-8 -6 -13 1q-6 7 2 13q43 33 70 83q26 54 26 109q0 9 9 9t9 -9q0 -63 -28 -117t-75 -89zM108 665q-4 -8 -12 -4q-8 5 -5 13l67 132q4 9 12 5q9 -5 4 -13zM94 677q7 6 13 -2 q6 -7 -2 -13q-45 -35 -69 -83q-27 -51 -27 -109q0 -9 -9 -9t-9 9q0 64 28 118q26 51 75 89zM407 674q3 -8 -4 -13q-9 -4 -13 4l-66 133q-3 9 4 13q8 4 12 -5zM393 662q-8 6 -2 13q6 8 13 2q49 -38 75 -89q28 -54 28 -118q0 -9 -9 -9t-9 9q0 57 -26 109q-25 49 -70 83z" />
<glyph unicode="A" d="M323 802q0 10 9 10t9 -10q0 -141 -99.5 -241t-241.5 -100q-9 0 -9 9q0 10 9 10q134 0 228 94q95 95 95 228zM498 480q9 0 9 -10q0 -9 -9 -9q-141 0 -241 100t-100 241q0 10 9 10t9 -10q0 -133 95 -228q94 -94 228 -94zM175 14q0 -9 -9 -9t-9 9q0 142 100 241.5t241 99.5 q9 0 9 -9t-9 -9q-135 0 -228 -95q-95 -93 -95 -228zM0 337q-9 0 -9 9t9 9q142 0 241.5 -99.5t99.5 -241.5q0 -9 -9 -9t-9 9q0 135 -95 228q-93 95 -228 95zM283 443l-34 62l-34 -62l-63 -35l63 -34l34 -63l34 63l63 34z" />
<glyph unicode="B" horiz-adv-x="495" d="M-6 340q-7 6 0 13q6 6 13 0l331 -332q7 -6 0 -13q-6 -6 -13 0zM488 353q7 6 13 0q7 -7 0 -13l-331 -332q-7 -6 -13 0q-7 7 0 13zM7 464q-7 -6 -13 0q-7 7 0 13l331 332q7 6 13 0q7 -7 0 -13zM501 477q7 -6 0 -13q-6 -6 -13 0l-331 332q-7 6 0 13q6 6 13 0zM280 463 q0 13 -9 22t-22 9t-22 -9t-9 -22t9 -22.5t22 -9.5t22 9.5t9 22.5zM280 354q0 13 -9 22.5t-22 9.5t-22 -9.5t-9 -22.5t9 -22t22 -9t22 9t9 22zM303 390q7 0 12.5 5t5.5 13t-5 13.5t-13 5.5t-13 -5.5t-5 -13.5t5.5 -13t12.5 -5zM195 390q7 0 12.5 5t5.5 13t-5 13.5t-13 5.5 t-13 -5.5t-5 -13.5t5.5 -13t12.5 -5z" />
<glyph unicode="C" d="M332 23q9 0 9 -9t-9 -9q-105 0 -191 58q-83 57 -123 150q-27 65 -27 133q0 9 9 9t9 -9q0 -98 56 -180q52 -80 141 -117q60 -26 126 -26zM489 346q0 9 9 9t9 -9q0 -105 -58 -191q-57 -83 -150 -123q-65 -27 -133 -27q-9 0 -9 9t9 9q98 0 180 56q80 52 117 141 q26 60 26 126zM332 812q9 0 9 -10q0 -9 -9 -9q-100 0 -180 -55q-81 -54 -117 -142q-26 -60 -26 -126q0 -9 -9 -9t-9 9q0 106 58 191q57 84 150 124q65 27 133 27zM507 470q0 -9 -9 -9t-9 9q0 97 -55 181q-54 79 -142 117q-61 25 -126 25q-9 0 -9 9q0 10 9 10q103 0 191 -59 q83 -57 123 -150q27 -61 27 -133zM90 236q-7 -7 -13 0q-7 6 0 13l331 331q7 7 13 0q7 -6 0 -13zM77 567q-7 7 0 13q6 7 13 0l331 -331q7 -7 0 -13q-6 -7 -13 0z" />
<glyph unicode="D" d="M331 189q9 0 9 -9t-9 -9q-48 0 -88 -27q-39 -27 -56 -69q-13 -31 -13 -61q0 -9 -9 -9t-9 9q0 54 30 98q29 43 77 64q34 13 68 13zM498 356q9 0 9 -9t-9 -9q-48 0 -88 -27q-39 -27 -56 -69q-13 -29 -13 -61q0 -9 -9 -9t-9 9q0 54 30 98q29 43 77 64q30 13 68 13zM167 171 q-9 0 -9 9t9 9q54 0 98 -30q42 -27 64 -77q13 -34 13 -68q0 -9 -9 -9t-9 9q0 48 -27 88q-26 39 -69 57q-27 12 -61 12zM0 338q-9 0 -9 9t9 9q54 0 98 -30q42 -27 64 -77q13 -34 13 -68q0 -9 -9 -9t-9 9q0 48 -27 88q-26 39 -69 57q-29 12 -61 12zM331 646q9 0 9 -10 q0 -9 -9 -9q-54 0 -98 30q-43 29 -63 77q-14 33 -14 68q0 10 9 10t9 -10q0 -47 27 -87q26 -39 69 -57q28 -12 61 -12zM498 479q9 0 9 -10q0 -9 -9 -9q-54 0 -98 30q-43 29 -63 77q-14 33 -14 68q0 9 9 9t9 -9q0 -47 27 -87q26 -39 69 -57q29 -12 61 -12zM167 627q-9 0 -9 9 q0 10 9 10q50 0 88 26q39 26 57 69q12 29 12 61q0 10 9 10t9 -10q0 -54 -30 -98q-28 -43 -77 -63q-33 -14 -68 -14zM0 460q-9 0 -9 9q0 10 9 10q50 0 88 26q39 26 57 69q12 28 12 61q0 9 9 9t9 -9q0 -54 -30 -98q-28 -43 -77 -63q-33 -14 -68 -14zM316 434h-132 q0 27 19.5 46.5t46.5 19.5q28 0 47 -19.5t19 -46.5zM184 383h132q0 -27 -19 -46.5t-47 -19.5q-27 0 -46.5 19.5t-19.5 46.5z" />
<glyph unicode="E" d="M0 338q-9 0 -9 9t9 9q54 0 98 -30q42 -27 64 -77q13 -34 13 -68q0 -9 -9 -9t-9 9q0 48 -27 88q-26 39 -69 57q-29 12 -61 12zM157 181q0 10 9 10t9 -10v-166q0 -10 -9 -10t-9 10v166zM0 461q-9 0 -9 9t9 9q48 0 88 27q39 26 57 69q12 27 12 61q0 9 9 9t9 -9 q0 -54 -30 -98q-27 -42 -77 -64q-30 -13 -68 -13zM175 636q0 -10 -9 -10t-9 10v166q0 10 9 10t9 -10v-166zM498 356q9 0 9 -9t-9 -9q-48 0 -88 -27q-39 -27 -56 -69q-13 -29 -13 -61q0 -9 -9 -9t-9 9q0 54 30 98q29 43 77 64q30 13 68 13zM323 181q0 10 9 10t9 -10v-166 q0 -10 -9 -10t-9 10v166zM498 479q9 0 9 -9t-9 -9q-53 0 -98 29q-43 29 -63 78q-14 31 -14 68q0 9 9 9t9 -9q0 -48 27 -88q26 -39 69 -57q29 -12 61 -12zM341 636q0 -10 -9 -10t-9 10v166q0 10 9 10t9 -10v-166zM255 414h38l-38 38v-38zM255 402v-37l38 37h-38zM243 402h-37 l37 -37v37zM243 414v38l-37 -38h37z" />
<glyph unicode="F" d="M323 181q0 10 9 10t9 -10v-166q0 -10 -9 -10t-9 10v166zM491 354q7 6 13 0q7 -7 0 -13l-165 -166q-7 -7 -13 0q-7 6 0 13zM157 181q0 10 9 10t9 -10v-166q0 -10 -9 -10t-9 10v166zM-6 341q-7 6 0 13q6 6 13 0l166 -166q6 -7 0 -13q-7 -7 -13 0zM341 636q0 -10 -9 -10 t-9 10v166q0 10 9 10t9 -10v-166zM504 476q7 -6 0 -13q-6 -6 -13 0l-165 166q-7 7 0 13q6 7 13 0zM175 636q0 -10 -9 -10t-9 10v166q0 10 9 10t9 -10v-166zM7 463q-7 -6 -13 0q-7 7 0 13l166 166q6 7 13 0q6 -6 0 -13zM146 439q-9 0 -9 9t9 9h206q9 0 9 -9t-9 -9h-206z M146 399q-9 0 -9 9t9 9h206q9 0 9 -9t-9 -9h-206zM146 359q-9 0 -9 9q0 10 9 10h206q9 0 9 -10q0 -9 -9 -9h-206z" />
<glyph unicode="G" d="M331 189q9 0 9 -9t-9 -9q-48 0 -88 -27q-39 -27 -56 -69q-13 -31 -13 -61q0 -9 -9 -9t-9 9q0 54 30 98q29 43 77 64q34 13 68 13zM332 172q-9 0 -9 9t9 9q48 0 88 27q39 27 56 69q13 31 13 61q0 9 9 9t9 -9q0 -54 -30 -98t-77 -63q-33 -14 -68 -14zM167 171q-9 0 -9 9 t9 9q54 0 98 -30q42 -27 64 -77q13 -30 13 -68q0 -9 -9 -9t-9 9q0 48 -27 88q-26 39 -69 57q-27 12 -61 12zM166 190q9 0 9 -9t-9 -9q-54 0 -98 30q-43 29 -63 77q-14 33 -14 68q0 9 9 9t9 -9q0 -47 27 -87q26 -39 69 -57q31 -13 61 -13zM331 646q9 0 9 -10q0 -9 -9 -9 q-54 0 -98 30q-43 29 -63 77q-14 33 -14 68q0 10 9 10t9 -10q0 -47 27 -87q26 -39 69 -57q28 -12 61 -12zM332 626q-9 0 -9 9t9 9q53 0 98 -29q43 -29 63 -78q14 -31 14 -68q0 -9 -9 -9t-9 9q0 48 -27 88q-26 39 -69 57q-29 12 -61 12zM167 627q-9 0 -9 9q0 10 9 10 q50 0 88 26q39 26 57 69q12 29 12 61q0 10 9 10t9 -10q0 -54 -30 -98q-28 -43 -77 -63q-33 -14 -68 -14zM166 644q9 0 9 -9t-9 -9q-47 0 -87 -27q-39 -26 -57 -69q-13 -29 -13 -61q0 -9 -9 -9t-9 9q0 54 30 98q29 42 77 64q30 13 68 13zM347 364q18 0 31 13t13 31t-13 31 t-31 13t-31 -13t-13 -31t13 -31t31 -13zM153 364q19 0 31.5 13t12.5 31t-12.5 31t-31.5 13q-18 0 -30.5 -13t-12.5 -31t12.5 -31t30.5 -13zM241 475q0 9 9 9t9 -9v-133q0 -10 -9 -10t-9 10v133z" />
<glyph unicode="H" d="M203 337l45 71l45 -71q-21 -13 -45 -13t-45 13zM248 492q26 0 45 -13l-45 -71l-45 71q19 13 45 13zM158 180q0 9 9 9q10 0 10 -9q0 -49 26 -87q26 -39 69 -57q31 -13 61 -13q9 0 9 -9t-9 -9q-54 0 -98 30q-43 29 -63 77q-14 33 -14 68zM175 181q0 -9 -9 -9t-9 9 q0 48 -27 88q-26 39 -69 57q-29 12 -61 12q-9 0 -9 9t9 9q53 0 98 -29q42 -29 64 -78q13 -33 13 -68zM322 180q0 9 9 9t9 -9q0 -54 -30 -98t-77 -63q-33 -14 -68 -14q-9 0 -9 9t9 9q48 0 88 27q37 25 56 69q13 31 13 61zM341 181q0 -9 -9 -9t-9 9q0 54 30 98q29 43 77 64 q30 13 68 13q9 0 9 -9t-9 -9q-48 0 -88 -27q-39 -27 -56 -69q-13 -29 -13 -61zM177 636q0 -9 -10 -9q-9 0 -9 9q0 54 30 98q29 42 77 64q33 14 68 14q9 0 9 -10q0 -9 -9 -9q-47 0 -87 -27q-39 -26 -57 -69q-12 -27 -12 -61zM157 635q0 9 9 9t9 -9q0 -54 -30 -98 q-28 -43 -77 -63q-33 -14 -68 -14q-9 0 -9 9q0 10 9 10q50 0 88 26q39 26 57 69q12 28 12 61zM340 636q0 -9 -9 -9t-9 9q0 48 -27 88q-26 39 -69 57q-28 12 -61 12q-9 0 -9 9q0 10 9 10q51 0 98 -30q43 -29 63 -77q14 -33 14 -69zM323 635q0 9 9 9t9 -9q0 -47 27 -87 q26 -39 69 -57q29 -12 61 -12q9 0 9 -10q0 -9 -9 -9q-54 0 -98 30q-43 29 -63 77q-14 33 -14 68z" />
<glyph unicode="I" d="M190 352l35 56l17 -26q-17 -30 -50 -30h-2zM192 464q33 0 50 -30l-17 -26l-35 56h2zM308 352l-35 56l-17 -26q17 -30 50 -30h2zM306 464q-33 0 -50 -30l17 -26l35 56h-2zM491 354q7 6 13 0q7 -7 0 -13l-165 -166q-7 -7 -13 0q-7 6 0 13zM332 191q9 0 9 -10q0 -9 -9 -9 q-22 0 -42 -13q-19 -14 -26 -32q-6 -13 -6 -29q0 -24 12 -42q11 -17 33 -27q18 -6 29 -6q9 0 9 -9t-9 -9q-28 0 -52 16q-22 15 -33 41q-8 18 -8 36q0 28 16 52q16 23 41 33q18 8 36 8zM-6 341q-7 6 0 13q6 6 13 0l166 -166q6 -7 0 -13q-7 -7 -13 0zM166 172q-9 0 -9 9 q0 10 9 10q28 0 52 -16t34 -41q7 -19 7 -36q0 -28 -16 -52t-41 -34q-19 -7 -36 -7q-9 0 -9 9t9 9q22 0 42 13q17 11 27 33q5 15 5 29q0 23 -12 41q-13 19 -33 27q-13 6 -29 6zM504 476q7 -7 0 -13q-6 -7 -13 0l-165 166q-7 6 0 13q6 6 13 0zM332 644q9 0 9 -9t-9 -9 q-28 0 -52 16q-22 15 -33 41q-8 18 -8 36q0 28 16 52q16 23 41 33q18 8 36 8q9 0 9 -10q0 -9 -9 -9q-22 0 -42 -13q-19 -14 -26 -32q-6 -14 -6 -29q0 -24 12 -42q11 -17 33 -27q18 -6 29 -6zM7 463q-7 -7 -13 0q-7 6 0 13l166 166q6 6 13 0q6 -7 0 -13zM166 626q-9 0 -9 9 t9 9q22 0 42 13q17 11 27 33q5 15 5 29q0 23 -12 41q-13 19 -33 27q-13 6 -29 6q-9 0 -9 9q0 10 9 10q28 0 52 -16t34 -41q7 -19 7 -36q0 -28 -16 -52t-41 -34q-19 -7 -36 -7z" />
<glyph unicode="J" d="M491 354q7 6 13 0q7 -7 0 -13l-165 -166q-7 -7 -13 0q-7 6 0 13zM332 5q-9 0 -9 9t9 9q22 0 42 13q18 13 27 33q5 15 5 29q0 23 -12 41q-13 19 -33 27q-13 6 -29 6q-9 0 -9 9q0 10 9 10q28 0 52 -16q21 -14 34 -41q7 -19 7 -36q0 -28 -16 -52t-41 -34q-19 -7 -36 -7z M-6 341q-7 6 0 13q6 6 13 0l166 -166q6 -7 0 -13q-7 -7 -13 0zM166 23q9 0 9 -9t-9 -9q-28 0 -52 16q-22 15 -33 41q-8 18 -8 36q0 28 16 52q16 23 41 33q18 8 36 8q9 0 9 -10q0 -9 -9 -9q-23 0 -41 -13q-20 -13 -27 -32q-6 -13 -6 -29q0 -24 12 -42q14 -18 33 -27 q18 -6 29 -6zM504 476q7 -7 0 -13q-6 -7 -13 0l-165 166q-7 6 0 13q6 6 13 0zM332 793q-9 0 -9 9q0 10 9 10q28 0 52 -16q21 -14 34 -41q7 -19 7 -36q0 -28 -16 -52t-41 -34q-19 -7 -36 -7q-9 0 -9 9t9 9q22 0 42 13q18 13 27 33q5 15 5 29q0 23 -12 41q-13 19 -33 27 q-13 6 -29 6zM7 463q-7 -7 -13 0q-7 6 0 13l166 166q6 6 13 0q6 -7 0 -13zM166 812q9 0 9 -10q0 -9 -9 -9q-23 0 -41 -13q-20 -13 -27 -32q-6 -14 -6 -29q0 -24 12 -42q14 -18 33 -27q18 -6 29 -6q9 0 9 -9t-9 -9q-28 0 -52 16q-22 15 -33 41q-8 18 -8 36q0 28 16 52 q16 23 41 33q18 8 36 8zM293 360h9h9q0 -17 -10 -32q-9 -14 -25 -21q-12 -5 -23 -5q-17 0 -32 10q-13 8 -21 25q-4 9 -4 23q0 19 10 32q10 15 25 21q9 4 22 4q18 0 33 -9q15 -11 20 -26q5 -12 5 -22h-9h-9q0 12 -7 22q-6 9 -17 14q-7 3 -16 3q-12 0 -22 -7q-9 -6 -14 -17 q-3 -7 -3 -15q0 -12 7 -22q6 -9 17 -14q8 -3 15 -3q13 0 22 6q11 8 14 18q4 8 4 15zM274 360q0 8 -6 14.5t-15 6.5q-8 0 -14 -6.5t-6 -14.5q0 -9 6 -15t14 -6q9 0 15 6t6 15zM293 457h9h9q0 -16 -10 -33q-9 -14 -25 -20q-12 -5 -23 -5q-17 0 -32 10q-13 9 -21 25q-4 9 -4 23 q0 19 10 32q8 13 25 21q9 4 22 4q19 0 33 -10q14 -9 20 -25q5 -12 5 -22h-9h-9q0 10 -7 22q-6 9 -17 14q-7 3 -16 3q-10 0 -22 -7q-9 -6 -14 -17q-3 -8 -3 -15q0 -11 7 -22q5 -9 17 -14q10 -4 15 -4q11 0 22 7q11 6 14 17q4 10 4 16zM274 457q0 8 -6 14.5t-15 6.5 q-8 0 -14 -6.5t-6 -14.5q0 -9 6 -15t14 -6q9 0 15 6t6 15z" />
<glyph unicode="K" d="M0 171q-9 0 -9 9t9 9q22 0 42 13q18 12 27 33q6 18 6 29q0 22 -13 41t-33 27q-13 6 -29 6q-9 0 -9 9t9 9q30 0 52 -15q23 -15 34 -41q7 -19 7 -36q0 -28 -16 -52t-41 -34q-19 -7 -36 -7zM-6 174q-7 6 0 13q6 6 13 0l166 -166q6 -7 0 -13q-7 -7 -13 0zM498 189q9 0 9 -9 t-9 -9q-28 0 -52 16q-21 14 -34 41q-7 19 -7 36q0 28 16 52q16 23 41 33q15 7 36 7q9 0 9 -9t-9 -9q-22 0 -42 -13q-18 -13 -27 -32q-5 -15 -5 -29q0 -24 12 -42q11 -17 33 -27q13 -6 29 -6zM491 187q7 6 13 0q7 -7 0 -13l-165 -166q-7 -7 -13 0q-7 6 0 13zM0 627q-9 0 -9 9 q0 10 9 10q28 0 52 -16t34 -41q7 -19 7 -36q0 -28 -16 -52t-41 -34q-19 -7 -36 -7q-9 0 -9 9q0 10 9 10q24 0 42 12q17 11 27 33q6 18 6 29q0 23 -13 41q-13 19 -33 27q-13 6 -29 6zM7 630q-7 -7 -13 0q-7 6 0 13l166 166q6 6 13 0q6 -7 0 -13zM498 646q9 0 9 -10 q0 -9 -9 -9q-22 0 -42 -13q-18 -13 -27 -32q-5 -15 -5 -29q0 -24 12 -42q11 -17 33 -27q15 -5 29 -5q9 0 9 -10q0 -9 -9 -9q-28 0 -52 16q-21 14 -34 41q-7 19 -7 36q0 28 16 52q15 22 41 33q18 8 36 8zM504 643q7 -7 0 -13q-6 -7 -13 0l-165 166q-7 6 0 13q6 6 13 0z M278 368q0 12 -8.5 20.5t-20.5 8.5t-20.5 -8.5t-8.5 -20.5t8.5 -20.5t20.5 -8.5t20.5 8.5t8.5 20.5zM249 416l71 72q7 6 13 0q7 -7 0 -13l-84 -85l-84 85q-7 6 0 13q6 6 13 0z" />
<glyph unicode="L" d="M-6 174q-7 6 0 13q6 6 13 0l166 -166q6 -7 0 -13q-7 -7 -13 0zM-6 341q-7 6 0 13q6 6 13 0l83 -84q7 -6 0 -13q-6 -6 -13 0zM7 174q-7 -7 -13 0q-7 6 0 13l83 83q7 7 13 0q7 -6 0 -13zM491 187q7 6 13 0q7 -7 0 -13l-165 -166q-7 -7 -13 0q-7 6 0 13zM491 354q7 6 13 0 q7 -7 0 -13l-83 -84q-7 -5 -13 0q-7 7 0 13zM504 187q7 -7 0 -13q-6 -7 -13 0l-83 83q-7 7 0 13q6 6 13 0zM7 630q-7 -7 -13 0q-7 6 0 13l166 166q6 6 13 0q6 -7 0 -13zM7 463q-7 -7 -13 0q-7 6 0 13l83 83q7 7 13 0q7 -6 0 -13zM-6 630q-7 6 0 13q6 7 13 0l83 -84 q7 -6 0 -13q-6 -6 -13 0zM504 643q7 -7 0 -13q-6 -7 -13 0l-165 166q-7 6 0 13q6 6 13 0zM504 476q7 -7 0 -13q-6 -7 -13 0l-83 83q-7 7 0 13q6 7 13 0zM491 643q7 7 13 0q7 -7 0 -13l-83 -84q-7 -5 -13 0q-7 7 0 13zM320 180q7 -6 0 -13q-7 -6 -13 0q-48 48 -75 113 q-25 60 -25 128q0 69 25 129q26 63 75 112q6 7 13 0q7 -6 0 -13q-46 -44 -71 -106q-24 -58 -24 -122q0 -62 24 -121q25 -61 71 -107zM191 167q-6 -6 -13 0q-6 7 0 13q46 46 71 107q24 59 24 121q0 64 -24 122q-25 62 -71 106q-6 7 0 13q7 7 13 0q50 -49 75 -112 q25 -60 25 -129q0 -68 -25 -128q-25 -65 -75 -113z" />
<glyph unicode="M" d="M-6 341q-7 6 0 13q6 6 13 0l166 -166q6 -7 0 -13q-7 -7 -13 0zM173 21q6 -7 0 -13q-7 -7 -13 0l-84 83q-7 7 0 13q7 7 13 0zM160 188q6 6 13 0q6 -7 0 -13l-84 -84q-6 -6 -13 0q-7 7 0 13zM491 354q7 6 13 0q7 -7 0 -13l-165 -166q-7 -7 -13 0q-7 6 0 13zM339 8 q-7 -7 -13 0q-7 6 0 13l83 83q7 6 13 0q7 -6 0 -13zM326 175q-7 6 0 13q6 6 13 0l83 -84q7 -6 0 -13q-6 -5 -13 0zM7 463q-7 -7 -13 0q-7 6 0 13l166 166q6 6 13 0q6 -7 0 -13zM160 809q6 6 13 0q6 -7 0 -13l-84 -84q-6 -6 -13 0q-7 7 0 13zM173 642q6 -7 0 -13q-7 -7 -13 0 l-84 83q-7 7 0 13q7 7 13 0zM504 476q7 -7 0 -13q-6 -7 -13 0l-165 166q-7 6 0 13q6 6 13 0zM326 796q-7 6 0 13q6 6 13 0l83 -84q7 -6 0 -13q-6 -5 -13 0zM339 629q-7 -7 -13 0q-7 6 0 13l83 83q7 7 13 0q7 -6 0 -13zM297 408q0 20 -14 34.5t-34 14.5t-34 -14.5t-14 -34.5 t14 -34t34 -14t34 14t14 34zM277 313q0 12 -8 20t-20 8t-20 -8t-8 -20q0 -11 8 -19.5t20 -8.5t20 8.5t8 19.5zM267 250q0 8 -5.5 13t-12.5 5t-12.5 -5t-5.5 -13t5.5 -13t12.5 -5t12.5 5t5.5 13zM221 503q0 -11 8 -19.5t20 -8.5t20 8.5t8 19.5q0 12 -8 20.5t-20 8.5t-20 -8.5 t-8 -20.5zM231 566q0 -7 5.5 -12t12.5 -5t12.5 5t5.5 12q0 8 -5.5 13t-12.5 5t-12.5 -5t-5.5 -13z" />
<glyph unicode="N" horiz-adv-x="497" d="M94 103q-8 3 -5 12q3 8 12 5l235 -97q9 -4 5 -12q-4 -9 -12 -5zM106 115q3 -9 -5 -12q-9 -3 -12 5l-97 235q-4 8 5 12q8 4 12 -5zM397 120q9 3 12 -5q3 -9 -5 -12l-234 -97q-9 -3 -12 5q-4 8 5 12zM409 108q-3 -8 -12 -5q-8 4 -5 12l97 235q4 9 12 5q9 -4 5 -12zM101 697 q-9 -3 -12 5q-4 8 5 12l235 97q8 4 12 -5q3 -8 -5 -12zM89 709q4 8 12 5q9 -4 5 -12l-97 -235q-4 -9 -12 -5q-8 3 -5 12zM404 714q9 -4 5 -12q-3 -8 -12 -5l-234 97q-8 3 -5 12q3 8 12 5zM392 702q-4 8 5 12q8 3 12 -5l97 -235q3 -9 -5 -12q-8 -4 -12 5zM268 408l46 -46 l46 46l-46 46zM138 408l46 -46l46 46l-46 46z" />
<glyph unicode="O" horiz-adv-x="497" d="M238 257q8 -3 5 -12q-4 -8 -12 -5l-234 98q-9 2 -5 12q4 8 12 5zM226 245q-3 8 5 12q9 3 12 -5l98 -234q3 -8 -5 -12q-10 -4 -12 5zM267 240q-8 -3 -12 5q-3 9 5 12l234 98q10 4 12 -5q4 -10 -5 -12zM255 252q3 8 12 5q8 -3 5 -12l-97 -234q-4 -9 -12 -5q-8 3 -5 12z M231 576q9 3 12 -5q3 -9 -5 -12l-234 -97q-9 -3 -12 5q-3 9 5 12zM243 564q-3 -8 -12 -5q-8 4 -5 12l98 235q2 9 12 5q9 -4 5 -12zM260 559q-8 3 -5 12q3 8 12 5l234 -97q8 -3 5 -12q-2 -9 -12 -5zM272 571q3 -9 -5 -12q-9 -3 -12 5l-97 235q-4 8 5 12q8 4 12 -5zM179 471 q-9 0 -9 9q0 10 9 10q25 0 45 -14q22 -15 30 -36q6 -15 6 -32q0 -25 -14 -45q-15 -22 -36 -30q-14 -6 -31 -6q-9 0 -9 9t9 9q19 0 35 11t23 28q5 12 5 24q0 19 -11 35q-11 17 -28 23q-9 5 -24 5zM323 345q9 0 9 -9t-9 -9q-25 0 -45 14q-22 15 -30 36q-6 13 -6 31q0 26 14 46 q12 19 35 29q17 7 32 7q9 0 9 -10q0 -9 -9 -9q-18 0 -35 -10q-15 -11 -23 -28q-5 -13 -5 -25q0 -19 11 -35t28 -23q12 -5 24 -5z" />
<glyph unicode="P" horiz-adv-x="497" d="M268 408l46 -46l46 46l-46 46zM138 408l46 -46l46 46l-46 46zM-8 467q-3 9 5 12t12 -5l166 -457q4 -9 -6 -11q-9 -3 -12 5zM489 474q4 8 12 5t6 -12l-166 -456q-3 -8 -12 -5q-8 2 -6 11zM9 343q-3 -8 -12 -6q-8 3 -5 12l165 456q4 9 12 6q9 -4 6 -12zM507 349 q2 -9 -6 -12q-9 -2 -12 6l-166 456q-2 9 6 12t12 -6zM240 705q0 9 9 9t9 -9v-593q0 -9 -9 -9t-9 9v593z" />
<glyph unicode="Q" d="M-7 465q-6 7 2 13q7 6 13 -2l331 -456q6 -8 -2 -13q-7 -5 -12 2zM491 476q4 8 12 2t2 -13l-331 -456q-6 -8 -13 -2q-8 6 -2 13zM8 341q-6 -8 -13 -2q-7 5 -2 12l332 457q5 7 12 2q8 -5 2 -13zM505 351q5 -7 -2 -12q-8 -6 -12 2l-332 456q-6 7 2 13q7 6 13 -2zM181 506 q0 9 9 9t9 -9v-195q0 -9 -9 -9t-9 9v195zM220 506q0 9 9 9q10 0 10 -9v-195q0 -9 -10 -9q-9 0 -9 9v195zM260 506q0 9 9 9t9 -9v-195q0 -9 -9 -9t-9 9v195zM299 506q0 9 9 9t9 -9v-195q0 -9 -9 -9t-9 9v195z" />
<glyph unicode="R" d="M8 466q-4 -7 -12 -4q-7 5 -4 13l166 331q4 9 12 5q9 -5 4 -13zM506 475q3 -9 -4 -13q-8 -4 -12 4l-166 332q-3 9 4 13q8 4 12 -5zM-8 342q-4 8 4 12q8 5 12 -4l166 -332q6 -8 -4 -12q-8 -4 -12 4zM490 350q4 10 12 4q8 -3 4 -12l-166 -332q-4 -8 -12 -4q-8 3 -4 12z M226 491q0 8 -5.5 13.5t-12.5 5.5q-8 0 -13.5 -5.5t-5.5 -13.5t5.5 -13t13.5 -5t13 5.5t5 12.5zM226 408q0 8 -5.5 13.5t-12.5 5.5q-8 0 -13.5 -5.5t-5.5 -13.5t5.5 -13t13.5 -5t13 5t5 13zM226 325q0 8 -5 13.5t-13 5.5q-19 0 -19 -19q0 -8 5.5 -13t13.5 -5t13 5.5t5 12.5z M309 491q0 8 -5.5 13.5t-12.5 5.5q-8 0 -13.5 -5.5t-5.5 -13.5t5.5 -13t13.5 -5q7 0 12.5 5.5t5.5 12.5zM309 408q0 8 -5.5 13.5t-12.5 5.5q-8 0 -13.5 -5.5t-5.5 -13.5t5.5 -13t13.5 -5q7 0 12.5 5t5.5 13zM309 325q0 8 -5 13.5t-13 5.5q-19 0 -19 -19q0 -8 5.5 -13 t13.5 -5q7 0 12.5 5.5t5.5 12.5z" />
<glyph unicode="S" d="M498 189q9 0 9 -9t-9 -9q-28 0 -52 16q-21 14 -34 41q-7 19 -7 36q0 28 16 52q16 23 41 33q15 7 36 7q9 0 9 -9t-9 -9q-22 0 -42 -13q-18 -13 -27 -32q-5 -15 -5 -29q0 -24 12 -42q11 -17 33 -27q13 -6 29 -6zM498 189q9 0 9 -9t-9 -9q-48 0 -88 -27q-39 -27 -56 -69 q-13 -31 -13 -61q0 -9 -9 -9t-9 9q0 54 30 98q29 43 77 64q34 13 68 13zM0 171q-9 0 -9 9t9 9q22 0 42 13q18 12 27 33q6 18 6 29q0 22 -13 41t-33 27q-13 6 -29 6q-9 0 -9 9t9 9q30 0 52 -15q23 -15 34 -41q7 -19 7 -36q0 -28 -16 -52t-41 -34q-19 -7 -36 -7zM0 171 q-9 0 -9 9t9 9q54 0 98 -30q42 -27 64 -77q13 -34 13 -68q0 -9 -9 -9t-9 9q0 48 -27 88q-26 39 -69 57q-29 12 -61 12zM498 646q9 0 9 -10q0 -9 -9 -9q-22 0 -42 -13q-18 -13 -27 -32q-5 -15 -5 -29q0 -24 12 -42q11 -17 33 -27q15 -5 29 -5q9 0 9 -10q0 -9 -9 -9 q-28 0 -52 16q-21 14 -34 41q-7 19 -7 36q0 28 16 52q15 22 41 33q18 8 36 8zM498 646q9 0 9 -10q0 -9 -9 -9q-54 0 -98 30q-43 29 -63 77q-14 33 -14 68q0 10 9 10t9 -10q0 -47 27 -87q26 -39 69 -57q29 -12 61 -12zM0 627q-9 0 -9 9q0 10 9 10q28 0 52 -16t34 -41 q7 -19 7 -36q0 -28 -16 -52t-41 -34q-19 -7 -36 -7q-9 0 -9 9q0 10 9 10q24 0 42 12q17 11 27 33q6 18 6 29q0 23 -13 41q-13 19 -33 27q-13 6 -29 6zM0 627q-9 0 -9 9q0 10 9 10q50 0 88 26q39 26 57 69q12 29 12 61q0 10 9 10t9 -10q0 -54 -30 -98q-28 -43 -77 -63 q-33 -14 -68 -14zM213 485q-9 0 -9 10q0 9 9 9h72q9 0 9 -9q0 -10 -9 -10h-72zM213 451q-9 0 -9 9t9 9h72q9 0 9 -9t-9 -9h-72zM213 416q-9 0 -9 10q0 9 9 9h72q9 0 9 -9q0 -10 -9 -10h-72zM213 382q-9 0 -9 9t9 9h72q9 0 9 -9t-9 -9h-72zM213 347q-9 0 -9 9q0 10 9 10h72 q9 0 9 -10q0 -9 -9 -9h-72zM213 313q-9 0 -9 9t9 9h72q9 0 9 -9t-9 -9h-72z" />
<glyph unicode="T" d="M76 565q-9 0 -9 9t9 9h90q9 0 9 -9t-9 -9h-90zM8 465q-6 -8 -13 -2q-8 6 -2 13l76 104q6 8 13 2q8 -6 2 -13zM175 574q0 -9 -9 -9t-9 9v228q0 10 9 10t9 -10v-228zM422 583q9 0 9 -9t-9 -9h-90q-9 0 -9 9t9 9h90zM505 476q6 -8 -2 -13q-7 -5 -12 2l-77 104q-6 7 2 13 q7 6 13 -2zM341 574q0 -9 -9 -9t-9 9v228q0 10 9 10t9 -10v-228zM76 233q-9 0 -9 9q0 10 9 10h90q9 0 9 -10q0 -9 -9 -9h-90zM-7 341q-5 7 2 12q8 6 13 -1l76 -104q6 -7 -2 -13q-7 -6 -13 2zM157 242q0 10 9 10t9 -10v-228q0 -9 -9 -9t-9 9v228zM422 252q9 0 9 -10 q0 -9 -9 -9h-90q-9 0 -9 9q0 10 9 10h90zM491 352q5 6 12 1q8 -5 2 -12l-76 -104q-6 -8 -13 -2q-8 6 -2 13zM323 242q0 10 9 10t9 -10v-228q0 -9 -9 -9t-9 9v228zM234 424l-40 77l-38 -37zM264 393l41 -78l37 38zM264 424l78 40l-37 37zM234 393l-78 -40l38 -37z" />
<glyph unicode="U" d="M498 355q9 0 9 -9t-9 -9h-90q-9 0 -9 9t9 9h90zM401 352q5 7 13 1q7 -5 2 -12l-77 -104q-5 -7 -12 -2q-8 5 -2 13zM323 242q0 10 9 10t9 -10v-228q0 -9 -9 -9t-9 9v228zM0 337q-9 0 -9 9t9 9h90q9 0 9 -9t-9 -9h-90zM82 341q-5 7 2 12q8 5 13 -1l77 -104q6 -7 -2 -13 q-8 -5 -13 2zM157 242q0 10 9 10t9 -10v-228q0 -9 -9 -9t-9 9v228zM498 480q9 0 9 -10q0 -9 -9 -9h-90q-9 0 -9 9q0 10 9 10h90zM416 476q6 -7 -2 -13q-7 -6 -13 2l-76 104q-6 8 2 13q7 5 12 -2zM341 574q0 -9 -9 -9t-9 9v228q0 10 9 10t9 -10v-228zM0 461q-9 0 -9 9 q0 10 9 10h90q9 0 9 -10q0 -9 -9 -9h-90zM97 465q-5 -7 -13 -2q-8 6 -2 13l77 104q5 7 13 2q8 -6 2 -13zM175 574q0 -9 -9 -9t-9 9v228q0 10 9 10t9 -10v-228zM191 453q-6 7 0 13q7 7 13 0l103 -103q7 -6 0 -13q-7 -5 -13 0zM204 350q-6 -6 -13 0q-6 7 0 13l103 103 q6 6 13 0t0 -13z" />
<glyph unicode="V" d="M166 252q9 0 9 -10q0 -9 -9 -9q-34 0 -58 -18q-28 -18 -38 -46q-9 -18 -9 -41q0 -32 18 -58q16 -25 46 -38q19 -9 41 -9q9 0 9 -9t-9 -9q-37 0 -69 21q-30 21 -44 54q-10 21 -10 48q0 38 21 69q20 31 54 45q25 10 48 10zM76 233q-9 0 -9 9q0 10 9 10h90q9 0 9 -10 q0 -9 -9 -9h-90zM-7 341q-5 7 2 12q8 6 13 -1l76 -104q6 -7 -2 -13q-7 -6 -13 2zM332 233q-9 0 -9 9q0 10 9 10q37 0 69 -21q29 -21 45 -55q9 -21 9 -48q0 -39 -21 -69t-54 -44q-21 -10 -48 -10q-9 0 -9 9t9 9q31 0 59 18q26 20 38 46q8 21 8 41q0 31 -18 59q-17 26 -46 38 q-21 8 -41 8zM422 252q9 0 9 -10q0 -9 -9 -9h-90q-9 0 -9 9q0 10 9 10h90zM491 352q5 6 12 1q8 -5 2 -12l-76 -104q-6 -8 -13 -2q-8 6 -2 13zM166 583q9 0 9 -9t-9 -9q-37 0 -69 21q-30 21 -44 54q-10 21 -10 48q0 38 21 69q19 29 54 45q25 10 48 10q9 0 9 -10q0 -9 -9 -9 q-32 0 -58 -18q-28 -18 -38 -46q-9 -18 -9 -41q0 -32 18 -58q16 -25 46 -38q19 -9 41 -9zM76 565q-9 0 -9 9t9 9h90q9 0 9 -9t-9 -9h-90zM8 465q-6 -8 -13 -2q-8 6 -2 13l76 104q6 8 13 2q8 -6 2 -13zM332 565q-9 0 -9 9t9 9q31 0 59 18q26 20 38 46q8 21 8 41q0 31 -18 59 q-17 26 -46 38q-21 8 -41 8q-9 0 -9 9q0 10 9 10q38 0 69 -22q29 -19 45 -54q9 -22 9 -48q0 -39 -21 -69t-54 -44q-21 -10 -48 -10zM422 583q9 0 9 -9t-9 -9h-90q-9 0 -9 9t9 9h90zM505 476q6 -8 -2 -13q-7 -5 -12 2l-77 104q-6 7 2 13q7 6 13 -2zM291 408q0 18 -12.5 30.5 t-29.5 12.5t-29.5 -12.5t-12.5 -30.5q0 -17 12.5 -29.5t29.5 -12.5t29.5 12.5t12.5 29.5z" />
<glyph unicode="W" d="M166 5q-9 0 -9 9t9 9q31 0 59 18q26 20 38 46q8 21 8 41q0 31 -18 59q-17 26 -46 38q-21 8 -41 8q-9 0 -9 9q0 10 9 10q37 0 69 -21q29 -21 45 -55q9 -21 9 -48q0 -39 -21 -69t-54 -44q-21 -10 -48 -10zM76 233q-9 0 -9 9q0 10 9 10h90q9 0 9 -10q0 -9 -9 -9h-90zM-7 341 q-5 7 2 12q8 6 13 -1l76 -104q6 -7 -2 -13q-7 -6 -13 2zM332 23q9 0 9 -9t-9 -9q-37 0 -69 21q-29 19 -45 54q-9 22 -9 48q0 38 21 69q20 31 54 45q25 10 48 10q9 0 9 -10q0 -9 -9 -9q-34 0 -59 -18q-26 -18 -38 -46q-8 -19 -8 -41q0 -32 18 -58q17 -26 46 -38q19 -9 41 -9z M422 252q9 0 9 -10q0 -9 -9 -9h-90q-9 0 -9 9q0 10 9 10h90zM491 352q5 6 12 1q8 -5 2 -12l-76 -104q-6 -8 -13 -2q-8 6 -2 13zM166 793q-9 0 -9 9q0 10 9 10q38 0 69 -22q29 -19 45 -54q9 -22 9 -48q0 -39 -21 -69t-54 -44q-21 -10 -48 -10q-9 0 -9 9t9 9q31 0 59 18 q26 20 38 46q8 21 8 41q0 31 -18 59q-17 26 -46 38q-21 8 -41 8zM76 565q-9 0 -9 9t9 9h90q9 0 9 -9t-9 -9h-90zM8 465q-6 -8 -13 -2q-8 6 -2 13l76 104q6 8 13 2q8 -6 2 -13zM332 812q9 0 9 -10q0 -9 -9 -9q-31 0 -59 -18q-26 -18 -38 -46q-8 -21 -8 -41q0 -32 18 -58 q17 -26 46 -38q19 -9 41 -9q9 0 9 -9t-9 -9q-37 0 -69 21q-29 19 -45 54q-9 22 -9 48q0 38 21 69q19 29 54 45q25 10 48 10zM422 583q9 0 9 -9t-9 -9h-90q-9 0 -9 9t9 9h90zM505 476q6 -8 -2 -13q-7 -5 -12 2l-77 104q-6 7 2 13q7 6 13 -2zM161 385q-33 0 -52 -27 q1 21 16 35.5t36 14.5q22 0 37 -14.5t16 -35.5q-20 27 -53 27zM161 435q-35 0 -52 -27q1 21 16 36t36 15q22 0 37 -15t16 -36q-19 27 -53 27zM337 385q-33 0 -53 -27q1 21 16 35.5t37 14.5q21 0 36 -14.5t17 -35.5q-20 27 -53 27zM337 435q-34 0 -53 -27q1 21 16 36t37 15 q21 0 36 -15t17 -36q-19 27 -53 27z" />
<glyph unicode="X" d="M498 189q9 0 9 -9t-9 -9q-28 0 -52 16q-21 14 -34 41q-7 19 -7 36q0 28 16 52q16 23 41 33q15 7 36 7q9 0 9 -9t-9 -9q-22 0 -42 -13q-18 -13 -27 -32q-5 -15 -5 -29q0 -24 12 -42q11 -17 33 -27q13 -6 29 -6zM332 5q-9 0 -9 9t9 9q48 0 88 27q39 27 56 69q13 31 13 61 q0 9 9 9t9 -9q0 -54 -30 -98t-77 -63q-33 -14 -68 -14zM0 171q-9 0 -9 9t9 9q22 0 42 13q18 12 27 33q6 18 6 29q0 22 -13 41t-33 27q-13 6 -29 6q-9 0 -9 9t9 9q30 0 52 -15q23 -15 34 -41q7 -19 7 -36q0 -28 -16 -52t-41 -34q-19 -7 -36 -7zM166 23q9 0 9 -9t-9 -9 q-54 0 -98 30q-43 29 -63 77q-14 33 -14 68q0 9 9 9t9 -9q0 -47 27 -87q26 -39 69 -57q31 -13 61 -13zM498 646q9 0 9 -10q0 -9 -9 -9q-22 0 -42 -13q-18 -13 -27 -32q-5 -15 -5 -29q0 -24 12 -42q11 -17 33 -27q15 -5 29 -5q9 0 9 -10q0 -9 -9 -9q-28 0 -52 16 q-21 14 -34 41q-7 19 -7 36q0 28 16 52q15 22 41 33q18 8 36 8zM332 793q-9 0 -9 9q0 10 9 10q51 0 98 -30q43 -29 63 -77q14 -33 14 -69q0 -9 -9 -9t-9 9q0 48 -27 88q-26 39 -69 57q-29 12 -61 12zM0 627q-9 0 -9 9q0 10 9 10q28 0 52 -16t34 -41q7 -19 7 -36 q0 -28 -16 -52t-41 -34q-19 -7 -36 -7q-9 0 -9 9q0 10 9 10q24 0 42 12q17 11 27 33q6 18 6 29q0 23 -13 41q-13 19 -33 27q-13 6 -29 6zM166 812q9 0 9 -10q0 -9 -9 -9q-47 0 -87 -27q-39 -26 -57 -69q-13 -29 -13 -61q0 -9 -9 -9t-9 9q0 54 30 98q29 42 77 64q33 14 68 14 zM213 400l36 -106l37 106l73 84l-110 -21l-110 21zM229 515q0 -8 6 -14t14 -6t14.5 6t6.5 14q0 9 -6.5 15t-14.5 6t-14 -6t-6 -15z" />
<glyph unicode="Y" d="M0 109q-9 0 -9 9t9 9q31 0 59 18q26 17 38 46q8 21 8 41q0 31 -18 59q-18 26 -46 38q-21 8 -41 8q-9 0 -9 9t9 9q39 0 69 -21q29 -19 45 -54q10 -25 10 -48q0 -38 -22 -69q-19 -29 -54 -45q-22 -9 -48 -9zM90 127q9 0 9 -9t-9 -9h-90q-9 0 -9 9t9 9h90zM174 20 q6 -7 -2 -13q-8 -5 -13 2l-77 103q-5 8 2 13q8 5 13 -2zM498 127q9 0 9 -9t-9 -9q-39 0 -69 21q-29 19 -45 54q-9 22 -9 48q0 39 21 69q19 29 54 45q22 9 48 9q9 0 9 -9t-9 -9q-31 0 -59 -18q-26 -18 -38 -46q-8 -21 -8 -41q0 -31 18 -59q18 -26 46 -38q21 -8 41 -8z M408 109q-9 0 -9 9t9 9h90q9 0 9 -9t-9 -9h-90zM339 9q-5 -7 -12 -2q-8 5 -2 13l76 103q6 8 13 2q7 -5 2 -13zM0 689q-9 0 -9 10q0 9 9 9q37 0 69 -21q30 -21 45 -54q10 -25 10 -48q0 -39 -22 -69q-20 -31 -54 -45q-25 -10 -48 -10q-9 0 -9 9q0 10 9 10q34 0 59 18 q26 17 38 46q8 19 8 41q0 30 -18 58q-17 26 -46 38q-21 8 -41 8zM90 708q9 0 9 -9q0 -10 -9 -10h-90q-9 0 -9 10q0 9 9 9h90zM159 808q5 7 13 2q8 -6 2 -13l-77 -104q-5 -7 -13 -2q-8 6 -2 13zM498 708q9 0 9 -9q0 -10 -9 -10q-34 0 -59 -18q-26 -18 -38 -46q-8 -19 -8 -40 q0 -31 18 -59q17 -26 46 -38q21 -8 41 -8q9 0 9 -10q0 -9 -9 -9q-37 0 -69 21q-30 21 -45 55q-9 21 -9 48q0 39 21 68q20 31 54 45q25 10 48 10zM408 689q-9 0 -9 10q0 9 9 9h90q9 0 9 -9q0 -10 -9 -10h-90zM325 797q-6 8 2 13q7 5 12 -2l77 -104q6 -7 -2 -13q-7 -6 -13 2z M249 375l-77 -77q-6 -7 -13 0q-6 7 0 13l84 84q2 2 6 2q3 0 7 -2l83 -84q7 -6 0 -13q-7 -6 -13 0zM249 328l-77 -77q-6 -6 -13 0q-6 7 0 13l84 84q2 2 6 2q3 0 7 -2l83 -84q7 -6 0 -13q-7 -5 -13 0zM249 442l77 76q6 6 13 0t0 -13l-83 -83q-3 -3 -7 -3q-5 0 -6 3l-84 83 q-6 7 0 13q7 7 13 0zM249 488l77 77q6 7 13 0q7 -6 0 -13l-83 -83q-3 -3 -7 -3q-5 0 -6 3l-84 83q-6 7 0 13q7 7 13 0z" />
<glyph unicode="Z" d="M442 349q2 10 11 6q10 -2 6 -11q-14 -47 -46.5 -83t-76.5 -55q-9 -3 -12 5q-4 8 4 12q86 37 114 126zM498 355q9 0 9 -9t-9 -9h-47q-9 0 -9 9t9 9h47zM341 14q0 -9 -9 -9t-9 9v200q0 10 9 10t9 -10v-200zM39 344q-4 9 6 11q9 4 11 -6q28 -89 114 -126q9 -4 5 -12 q-4 -9 -13 -5q-44 19 -76.5 55t-46.5 83zM0 337q-9 0 -9 9t9 9h47q9 0 9 -9t-9 -9h-47zM175 14q0 -9 -9 -9t-9 9v200q0 10 9 10t9 -10v-200zM459 473q3 -8 -6 -12q-9 -2 -11 7q-14 42 -44 75.5t-70 50.5q-7 4 -4 12q4 8 12 5q93 -41 123 -138zM498 480q9 0 9 -10q0 -9 -9 -9 h-47q-9 0 -9 9q0 10 9 10h47zM323 802q0 10 9 10t9 -10v-200q0 -9 -9 -9t-9 9v200zM56 468q-2 -9 -11 -7q-9 4 -6 12q30 97 123 138q9 3 13 -5q3 -8 -5 -12q-40 -17 -70 -50.5t-44 -75.5zM0 461q-9 0 -9 9q0 10 9 10h47q9 0 9 -10q0 -9 -9 -9h-47zM157 802q0 10 9 10t9 -10 v-200q0 -9 -9 -9t-9 9v200zM188 430q-9 0 -9 9q0 10 9 10h122q9 0 9 -10q0 -9 -9 -9h-122zM188 368q-9 0 -9 9t9 9h122q9 0 9 -9t-9 -9h-122zM240 491q0 9 9 9t9 -9v-166q0 -9 -9 -9t-9 9v166z" />
<glyph unicode="a" d="M323 802q0 10 9 10t9 -10q0 -141 -100 -241t-241 -100q-9 0 -9 10q0 9 9 9q134 0 228 94q95 95 95 228zM498 480q9 0 9 -9q0 -10 -9 -10q-142 0 -241.5 100t-99.5 241q0 10 9 10t9 -10q0 -133 95 -228q94 -94 228 -94zM175 15q0 -9 -9 -9t-9 9q0 141 99.5 241t241.5 100 q9 0 9 -10q0 -9 -9 -9q-134 0 -228 -94q-95 -95 -95 -228zM0 337q-9 0 -9 9q0 10 9 10q141 0 241 -100t100 -241q0 -9 -9 -9t-9 9q0 133 -95 228q-94 94 -228 94zM250 434v-10q-3 -2 -24 -12q-16 -8 -16 -23q0 -17 13 -17q9 0 13 1q7 2 16 10h1q5 -11 18 -11t19 12q2 3 -1 3 l-2 2q-1 0 -2 -1q-2 -4 -6 -4t-4 13v37q0 11 -6 16q-6 6 -19 6q-20 0 -36 -14q-5 -5 -5 -13q0 -7 8 -7q12 0 12 11q0 10 1 11q4 3 10 3q5 0 8 -3q2 -2 2 -10zM251 417v-27q0 -5 -9 -7q-8 0 -8 13q0 3 0.5 5.5t1.5 4t3 3.5t3 2.5t4.5 2.5t4.5 3z" />
<glyph unicode="b" horiz-adv-x="495" d="M-6 340q-6 6 0 13t13 0l331 -331q6 -7 0 -13q-7 -7 -13 0zM488 353q6 7 13 0t0 -13l-331 -331q-7 -7 -13 0q-7 6 0 13zM7 465q-7 -7 -13 0q-7 6 0 13l331 331q6 6 13 0q6 -7 0 -13zM501 478q7 -7 0 -13q-7 -7 -13 0l-331 331q-7 6 0 13q6 6 13 0zM220 372l8 4 q12 -4 25 -4q18 0 30.5 14t12.5 29q0 17 -5 25q-10 16 -27 16q-14 0 -25 -9l1 21v11v11t0.5 9t0.5 7v3q0 3 -2 3q-1 0 -3 -1t-4 -1q-7 -4 -28 -11q-2 -1 -2 -2v-2q0 -1 2 -2h3q8 -3 8 -17v-70q0 -30 -1 -32q0 -1 1 -2l3 -1q1 0 2 1zM239 414v25q6 3 12 3q20 0 20 -33 q0 -14 -3 -20q-4 -10 -15 -10q-8 0 -11 8q-3 5 -3 27z" />
<glyph unicode="c" d="M332 24q9 0 9 -9t-9 -9q-141 0 -241 99.5t-100 240.5q0 10 9 10t9 -10q0 -131 95 -228q94 -94 228 -94zM488 346q0 10 10 10q9 0 9 -10q0 -141 -100 -240.5t-241 -99.5q-9 0 -9 9t9 9q134 0 228 94q94 96 94 228zM332 812q9 0 9 -10q0 -9 -9 -9q-134 0 -228 -94 q-95 -97 -95 -228q0 -10 -9 -10t-9 10q0 141 100 241t241 100zM507 471q0 -10 -9 -10q-10 0 -10 10q0 132 -94 228q-94 94 -228 94q-9 0 -9 9q0 10 9 10q141 0 241 -100t100 -241zM278 437q0 19 -30 19q-14 0 -28 -11q-14 -14 -14 -36q0 -15 10 -26q9 -11 29 -11q26 0 36 15 v2l-3 3h-2q-7 -6 -19 -6q-14 0 -20 11t-6 31q0 8 4.5 14t8.5 6q8 0 11 -9q2 -10 13 -10q10 0 10 8z" />
<glyph unicode="d" d="M331 190q9 0 9 -9q0 -10 -9 -10q-67 0 -111 -46q-46 -46 -46 -110q0 -9 -9 -9t-9 9q0 72 51 123.5t124 51.5zM498 357q9 0 9 -10q0 -9 -9 -9q-67 0 -111 -46q-46 -46 -46 -110q0 -10 -9 -10t-9 10q0 72 51 123.5t124 51.5zM167 171q-9 0 -9 10q0 9 9 9q73 0 124 -51.5 t51 -123.5q0 -9 -9 -9t-9 9q0 64 -46 110q-44 46 -111 46zM0 338q-9 0 -9 9q0 10 9 10q73 0 124 -51.5t51 -123.5q0 -10 -9 -10t-9 10q0 64 -46 110q-44 46 -111 46zM331 646q9 0 9 -10q0 -9 -9 -9q-73 0 -124 51.5t-51 123.5q0 10 9 10t9 -10q0 -64 46 -110q44 -46 111 -46 zM498 479q9 0 9 -9q0 -10 -9 -10q-73 0 -124 51.5t-51 123.5q0 10 9 10t9 -10q0 -64 46 -110q44 -46 111 -46zM167 627q-9 0 -9 9q0 10 9 10q67 0 111 46q46 46 46 110q0 10 9 10t9 -10q0 -72 -51 -123.5t-124 -51.5zM0 460q-9 0 -9 10q0 9 9 9q67 0 111 46q46 46 46 110 q0 10 9 10t9 -10q0 -72 -51 -123.5t-124 -51.5zM252 491l1 -38q-6 3 -16 3q-17 0 -27 -12q-14 -15 -14 -37q0 -16 12 -26q9 -9 23 -9q16 0 25 11l3 -9q0 -2 2 -2l28 7q2 1 2 2l-1 3q0 1 -3 1q-7 0 -8 2q-2 3 -2 18v41q0 54 1 63q0 3 -2 3h-5q-5 -2 -31 -4l-2 -1v-4 q0 -1 2 -1q12 -4 12 -11zM252 431l1 -34q0 -8 -2 -9q-4 -4 -9 -4q-21 0 -21 38q0 14 6 21q4 5 10 5q9 0 14 -8q1 -3 1 -9z" />
<glyph unicode="e" d="M0 338q-9 0 -9 9q0 10 9 10q73 0 124 -51.5t51 -123.5q0 -10 -9 -10t-9 10q0 64 -46 110q-44 46 -111 46zM157 182q0 9 9 9t9 -9v-167q0 -9 -9 -9t-9 9v167zM0 461q-9 0 -9 9t9 9q65 0 111 46t46 111q0 9 9 9t9 -9q0 -73 -51 -124t-124 -51zM175 636q0 -9 -9 -9t-9 9v166 q0 10 9 10t9 -10v-166zM498 357q9 0 9 -10q0 -9 -9 -9q-67 0 -111 -46q-46 -46 -46 -110q0 -10 -9 -10t-9 10q0 72 51 123.5t124 51.5zM323 182q0 9 9 9t9 -9v-167q0 -9 -9 -9t-9 9v167zM498 479q9 0 9 -9t-9 -9q-73 0 -124 51t-51 124q0 9 9 9t9 -9q0 -65 46 -111t111 -46z M341 636q0 -9 -9 -9t-9 9v166q0 10 9 10t9 -10v-166zM234 416v5h43q6 0 6 3q0 4 -1.5 10t-9.5 14t-21 8q-22 0 -33 -16q-8 -12 -8 -27q0 -19 13 -33q8 -8 28 -8q23 0 33 19q2 5 0 5l-3 2q-1 0 -2 -1q-5 -10 -20 -10q-25 0 -25 29zM252 428h-18q3 20 15 20q9 0 9 -16 q0 -4 -6 -4z" />
<glyph unicode="f" d="M323 182q0 9 9 9t9 -9v-167q0 -9 -9 -9t-9 9v167zM491 354q7 7 13 0q6 -6 0 -13l-166 -166q-6 -6 -13 0q-6 7 0 13zM157 182q0 9 9 9t9 -9v-167q0 -9 -9 -9t-9 9v167zM-6 341q-6 7 0 13q6 7 13 0l166 -166q6 -6 0 -13q-7 -6 -13 0zM341 636q0 -9 -9 -9t-9 9v166 q0 10 9 10t9 -10v-166zM504 476q7 -6 0 -13q-6 -6 -13 0l-166 166q-6 7 0 13q7 7 13 0zM175 636q0 -9 -9 -9t-9 9v166q0 10 9 10t9 -10v-166zM7 463q-7 -6 -13 0q-7 7 0 13l166 166q6 7 13 0q6 -6 0 -13zM252 427v16h20q2 0 2 1l1 7q0 2 -1 2h-22v8q0 32 2 36q4 6 10 6 q3 0 6 -6q4 -7 13 -7q10 0 10 9q0 13 -19 13t-32 -13q-16 -14 -16 -40v-6h-9q-3 0 -3 -1l-1 -7q0 -2 1 -2h12l1 -56q0 -6 -5 -6h-6l-2 -1v-5q0 -1 1 -1h24h26q1 0 1 2v3q0 2 -2 2h-7q-5 0 -5 6v40z" />
<glyph unicode="g" d="M331 190q9 0 9 -9q0 -10 -9 -10q-67 0 -111 -46q-46 -46 -46 -110q0 -9 -9 -9t-9 9q0 72 51 123.5t124 51.5zM332 172q-9 0 -9 10q0 9 9 9q65 0 111 46q45 45 45 110q0 10 10 10q9 0 9 -10q0 -72 -51 -123.5t-124 -51.5zM167 171q-9 0 -9 10q0 9 9 9q73 0 124 -51.5 t51 -123.5q0 -9 -9 -9t-9 9q0 64 -46 110q-44 46 -111 46zM166 191q9 0 9 -9q0 -10 -9 -10q-73 0 -124 51.5t-51 123.5q0 10 9 10t9 -10q0 -64 46 -110t111 -46zM331 646q9 0 9 -10q0 -9 -9 -9q-73 0 -124 51.5t-51 123.5q0 10 9 10t9 -10q0 -64 46 -110q44 -46 111 -46z M332 626q-9 0 -9 9q0 10 9 10q73 0 124 -51.5t51 -123.5q0 -10 -9 -10q-10 0 -10 10q0 65 -45 110q-46 46 -111 46zM167 627q-9 0 -9 9q0 10 9 10q67 0 111 46q46 46 46 110q0 10 9 10t9 -10q0 -72 -51 -123.5t-124 -51.5zM166 645q9 0 9 -10q0 -9 -9 -9q-65 0 -111 -46 t-46 -110q0 -10 -9 -10t-9 10q0 72 51 123.5t124 51.5zM215 329q11 -6 30 -6q26 0 40 12q11 9 11 21q0 10 -9 19q-10 7 -32 7q-26 0 -26 7q0 5 7 8h11q17 0 26 9q8 8 8 20q0 10 -2 12q2 2 4 2q3 0 5 -3t6 -3q8 0 8 8q0 10 -11 10q-9 0 -16 -7q-11 11 -26 11 q-18 0 -27.5 -8.5t-9.5 -19.5q0 -20 17 -28v-1q-17 -9 -17 -20t13 -15v-1q-19 -6 -19 -19q0 -10 9 -15zM276 346q0 -15 -25 -15q-11 0 -19 4q-6 6 -6 13q0 11 9 13l16 1q25 0 25 -16zM238 442q4 6 10 6t9 -5q2 -2 2 -12q0 -27 -12 -27q-5 0 -8 3q-4 4 -4 15q0 16 3 20z" />
<glyph unicode="h" d="M158 181q0 9 9 9t9 -9q0 -65 46 -111t111 -46q9 0 9 -9t-9 -9q-73 0 -124 51t-51 124zM175 182q0 -10 -9 -10t-9 10q0 64 -46 110q-44 46 -111 46q-9 0 -9 10q0 9 9 9q73 0 124 -51.5t51 -123.5zM321 181q0 9 10 9q9 0 9 -9q0 -73 -51 -124t-124 -51q-9 0 -9 9t9 9 q65 0 111 46q45 45 45 111zM341 182q0 -10 -9 -10t-9 10q0 72 51 123.5t124 51.5q9 0 9 -9q0 -10 -9 -10q-67 0 -111 -46q-46 -46 -46 -110zM176 636q0 -9 -9 -9t-9 9q0 73 51 124.5t124 51.5q9 0 9 -10q0 -9 -9 -9q-65 0 -111 -46t-46 -111zM157 635q0 10 9 10t9 -10 q0 -72 -51 -123.5t-124 -51.5q-9 0 -9 10q0 9 9 9q67 0 111 46q46 46 46 110zM340 636q0 -9 -9 -9q-10 0 -10 9q0 66 -45 111q-46 46 -111 46q-9 0 -9 9q0 10 9 10q73 0 124 -51.5t51 -124.5zM323 635q0 10 9 10t9 -10q0 -64 46 -110q44 -46 111 -46q9 0 9 -9q0 -10 -9 -10 q-73 0 -124 51.5t-51 123.5zM246 389v40q0 5 4 9q5 7 11 7q5 0 8 -4q5 -5 5 -27v-11q0 -3 -0.5 -10.5t-0.5 -8.5q0 -3 -4 -3h-3q-1 0 -1 -2v-3q0 -2 2 -2h21h21q1 0 1 2v4q-1 1 -2 1h-4q-6 0 -6 3q0 1 0.5 10t0.5 14v12q0 21 -8 28q-10 8 -19 8q-17 0 -24 -12h-2v11 q0 50 1 53q0 4 -2 4q-3 0 -6 -1q-15 -8 -28 -12q-3 -1 -3 -2v-3q0 -1 1 -1l4 -1q8 -4 8 -18l1 -78q0 -9 -1 -12t-6 -3h-3q-3 0 -3 -2v-3q0 -2 1 -2h22h21q1 0 1 2v3q0 2 -1 2h-4q-3 0 -3 8z" />
<glyph unicode="i" d="M491 354q7 7 13 0q6 -6 0 -13l-166 -166q-6 -6 -13 0q-6 7 0 13zM332 191q9 0 9 -9q0 -10 -9 -10q-30 0 -53 -21q-21 -23 -21 -53q0 -31 21 -52q22 -22 53 -22q9 0 9 -9t-9 -9q-38 0 -65.5 27t-27.5 65t27.5 65.5t65.5 27.5zM-6 341q-6 7 0 13q6 7 13 0l166 -166 q6 -6 0 -13q-7 -6 -13 0zM166 172q-9 0 -9 10q0 9 9 9q38 0 65.5 -27.5t27.5 -65.5t-27.5 -65t-65.5 -27q-9 0 -9 9t9 9q31 0 53 22q21 21 21 52q0 30 -21 53q-23 21 -53 21zM504 476q6 -6 0 -13t-13 0l-166 166q-6 6 0 13q7 6 13 0zM332 645q9 0 9 -10q0 -9 -9 -9 q-38 0 -65.5 27.5t-27.5 65.5t27.5 65.5t65.5 27.5q9 0 9 -10q0 -9 -9 -9q-31 0 -53 -22q-21 -21 -21 -52q0 -30 21 -53q23 -21 53 -21zM7 463q-7 -7 -13 0t0 13l166 166q6 6 13 0q6 -7 0 -13zM166 626q-9 0 -9 9q0 10 9 10q30 0 53 21q21 23 21 53q0 31 -21 52 q-22 22 -53 22q-9 0 -9 9q0 10 9 10q38 0 65.5 -27.5t27.5 -65.5t-27.5 -65.5t-65.5 -27.5zM272 374q2 0 2 2v3q0 2 -2 2h-7q-3 0 -3 5v16v20v31q0 3 -2 3h-2q-2 -1 -3 -1l-28 -9l-2 -2v-2q0 -2 3 -3q9 -4 9 -12v-26v-16q-1 -4 -4 -4h-7q-2 0 -2 -2v-3q0 -2 2 -2h20h26z M247 470q14 1 14 13q0 11 -13 11q-14 0 -14 -11q0 -13 13 -13z" />
<glyph unicode="j" d="M491 354q7 7 13 0q6 -6 0 -13l-166 -166q-6 -6 -13 0q-6 7 0 13zM332 6q-9 0 -9 9t9 9q32 0 52 22q22 20 22 52q0 31 -22 53q-21 21 -52 21q-9 0 -9 10q0 9 9 9q38 0 65 -27.5t27 -65.5t-27 -65t-65 -27zM-6 341q-6 7 0 13q6 7 13 0l166 -166q6 -6 0 -13q-7 -6 -13 0z M166 24q9 0 9 -9t-9 -9q-38 0 -65.5 27t-27.5 65t27.5 65.5t65.5 27.5q9 0 9 -9q0 -10 -9 -10q-30 0 -53 -21q-21 -23 -21 -53q0 -31 21 -52q22 -22 53 -22zM504 476q6 -6 0 -13t-13 0l-166 166q-6 6 0 13q7 6 13 0zM332 793q-9 0 -9 9q0 10 9 10q38 0 65 -27.5t27 -65.5 t-27 -65.5t-65 -27.5q-9 0 -9 9q0 10 9 10q31 0 52 21q22 22 22 53q0 32 -22 52q-20 22 -52 22zM7 463q-7 -7 -13 0t0 13l166 166q6 6 13 0q6 -7 0 -13zM166 812q9 0 9 -10q0 -9 -9 -9q-31 0 -53 -22q-21 -21 -21 -52q0 -30 21 -53q23 -21 53 -21q9 0 9 -10q0 -9 -9 -9 q-38 0 -65.5 27.5t-27.5 65.5t27.5 65.5t65.5 27.5zM271 396v24q0 31 1 32q0 4 -2 4q-1 0 -3 -0.5t-3 -0.5l-30 -11l-1 -1v-3q0 -1 1 -1l2 -1q9 -4 9 -12l1 -38q0 -29 -1 -44q0 -11 -5 -11q-4 0 -7 5q-5 7 -10 7q-10 0 -10 -11t16 -11q13 0 25 9.5t14 22.5q3 15 3 41z M255 470q16 0 16 14q0 12 -14 12q-17 0 -17 -13t15 -13z" />
<glyph unicode="k" d="M0 171q-9 0 -9 10q0 9 9 9q30 0 53 21q21 23 21 53t-21 53q-23 21 -53 21q-9 0 -9 9q0 10 9 10q38 0 65.5 -27.5t27.5 -65.5t-27.5 -65.5t-65.5 -27.5zM-6 174q-6 6 0 13t13 0l166 -166q6 -6 0 -13q-7 -6 -13 0zM498 190q9 0 9 -9q0 -10 -9 -10q-39 0 -66 27.5t-27 65.5 t27 65.5t66 27.5q9 0 9 -10q0 -9 -9 -9q-30 0 -53 -21q-22 -24 -22 -53t22 -53q23 -21 53 -21zM491 187q7 7 13 0t0 -13l-166 -166q-6 -6 -13 0q-6 7 0 13zM0 627q-9 0 -9 9q0 10 9 10q38 0 65.5 -27.5t27.5 -65.5t-27.5 -65.5t-65.5 -27.5q-9 0 -9 10q0 9 9 9q31 0 53 22 q21 21 21 52q0 30 -21 53q-23 21 -53 21zM7 630q-7 -7 -13 0q-6 6 0 13l166 166q6 6 13 0q6 -7 0 -13zM498 646q9 0 9 -10q0 -9 -9 -9q-30 0 -53 -21q-22 -24 -22 -53q0 -30 22 -52t53 -22q9 0 9 -9q0 -10 -9 -10q-39 0 -66 27.5t-27 65.5t27 65.5t66 27.5zM504 643 q6 -7 0 -13q-6 -7 -13 0l-166 166q-6 6 0 13q7 6 13 0zM219 482v-97q0 -4 -4 -4h-4q-2 0 -2 -2v-3l1 -2h21h20q1 0 1 1v4q0 2 -1 2h-4q-4 0 -4 5v28q2 0 5 -3q1 -2 7 -9.5t9.5 -12.5t3.5 -6q0 -3 -2 -3h-2q-1 0 -1 -1v-3q0 -2 2 -2h20h22q2 0 2 1v4q0 2 -2 2q-7 0 -10 3 q-2 2 -9 10t-15 17.5t-10 12.5q11 15 24 19q6 3 10 3h2q2 0 2 2v4q0 2 -2 2h-2q-2 0 -6 -0.5t-9 -0.5t-10 0.5t-8 0.5h-2q-1 0 -1 -2v-4q0 -2 1 -2q5 0 5 -3q0 -5 -17 -20q-3 -3 -6 -3v28q0 52 1 61q0 3 -2 3q-4 0 -7 -2q-14 -6 -27 -7q-3 -1 -3 -2v-4q1 -1 3 -1 q10 -3 10 -14z" />
<glyph unicode="l" d="M-6 174q-6 6 0 13t13 0l166 -166q6 -6 0 -13q-7 -6 -13 0zM-6 341q-6 7 0 13q6 7 13 0l83 -83q7 -7 0 -14q-6 -6 -13 0zM7 174q-7 -7 -13 0q-6 6 0 13l83 84q7 6 13 0q7 -7 0 -13zM491 187q7 7 13 0t0 -13l-166 -166q-6 -6 -13 0q-6 7 0 13zM491 354q7 7 13 0q6 -6 0 -13 l-83 -84q-7 -6 -13 0q-7 7 0 14zM504 187q6 -7 0 -13q-6 -7 -13 0l-83 84q-7 6 0 13q6 6 13 0zM7 630q-7 -7 -13 0q-6 6 0 13l166 166q6 6 13 0q6 -7 0 -13zM7 463q-7 -7 -13 0t0 13l83 84q7 6 13 0q7 -7 0 -14zM-6 630q-6 6 0 13t13 0l83 -83q7 -7 0 -14q-6 -6 -13 0z M504 643q6 -7 0 -13q-6 -7 -13 0l-166 166q-6 6 0 13q7 6 13 0zM504 476q6 -6 0 -13t-13 0l-83 83q-7 7 0 14q6 6 13 0zM491 643q7 7 13 0t0 -13l-83 -84q-7 -6 -13 0q-7 7 0 14zM268 412v35v62q0 3 -2 3t-4 -1q-8 -5 -33 -11l-2 -1v-3q0 -2 2 -2l3 -1q10 -3 10 -11 q1 -5 1 -34v-59q0 -8 -5 -8h-6q-3 0 -3 -2v-3q0 -2 2 -2h25h24q1 0 1 2v3q0 2 -2 2h-6q-5 0 -5 6v25z" />
<glyph unicode="m" d="M-6 341q-6 7 0 13q6 7 13 0l166 -166q6 -6 0 -13q-7 -6 -13 0zM173 21q6 -6 0 -13q-7 -6 -13 0l-84 84q-7 6 0 13q6 5 13 0zM160 188q6 7 13 0q6 -6 0 -13l-84 -83q-7 -6 -13 0q-7 6 0 13zM491 354q7 7 13 0q6 -6 0 -13l-166 -166q-6 -6 -13 0q-6 7 0 13zM338 8 q-6 -6 -13 0q-6 7 0 13l84 84q6 6 13 0q6 -7 0 -13zM325 175q-6 7 0 13q7 7 13 0l84 -83q6 -7 0 -13q-7 -7 -13 0zM7 463q-7 -7 -13 0t0 13l166 166q6 6 13 0q6 -7 0 -13zM160 809q6 6 13 0q6 -7 0 -13l-84 -84q-7 -5 -13 0q-7 7 0 13zM173 642q6 -7 0 -13q-7 -7 -13 0 l-84 83q-7 7 0 13q6 7 13 0zM504 476q6 -6 0 -13t-13 0l-166 166q-6 6 0 13q7 6 13 0zM325 796q-6 6 0 13q7 6 13 0l84 -84q6 -6 0 -13q-7 -6 -13 0zM338 629q-6 -7 -13 0q-6 6 0 13l84 83q6 7 13 0q6 -6 0 -13zM207 454l-24 -10l-2 -2v-2l2 -2l4 -2q5 -4 5 -14v-24v-13 q0 -4 -3 -4h-5q-3 0 -3 -2v-4q0 -1 2 -1h20h20q1 0 1 2v3q0 2 -2 2h-1q-4 0 -4 11v30q0 12 3 16q3 5 10 5t9 -2q4 -4 4 -19v-28q0 -13 -4 -13h-3q-2 0 -2 -2v-3q0 -2 1 -2h22h17q2 0 2 2v3q0 2 -2 2h-4q-3 0 -3 7v37q0 9 3 12q6 6 11 6t9 -4q3 -3 3 -19v-18q0 -13 -1 -18 q0 -3 -3 -3h-2q-1 0 -1 -2v-3q0 -2 1 -2h20h20q1 0 1 2v3q0 2 -2 2h-4q-5 0 -5 7q0 2 0.5 9.5t0.5 11.5v13q0 16 -8 26q-7 7 -19 7q-14 0 -25 -13h-1q-7 14 -22 14q-18 0 -27 -14h-1l-1 11q-2 3 -3 3q-2 0 -4 -2z" />
<glyph unicode="n" d="M94 103q-9 4 -5 12q3 8 12 5l234 -97q8 -3 5 -12q-4 -8 -12 -5zM106 115q4 -8 -5 -12q-8 -3 -12 5l-97 235q-3 9 5 12q8 4 12 -5zM397 120q9 3 12 -5q4 -8 -5 -12l-234 -97q-10 -4 -12 5q-3 8 4 12zM409 108q-4 -8 -12 -5q-9 4 -5 12l97 235q3 8 12 5q8 -3 5 -12z M101 697q-9 -3 -12 5q-4 8 5 12l234 97q9 3 12 -5q3 -9 -5 -12zM89 709q4 8 12 5q9 -4 5 -12l-97 -235q-4 -9 -12 -5q-9 4 -5 12zM404 714q9 -4 5 -12q-3 -8 -12 -5l-235 97q-7 4 -4 12q2 9 12 5zM392 702q-4 8 5 12q8 3 12 -5l97 -235q4 -8 -5 -12q-9 -3 -12 5zM240 445h-1 l-3 8q0 3 -2 3t-4 -2l-24 -11l-2 -1v-2q0 -2 1 -2l2 -1q7 -3 7 -11v-41q0 -4 -5 -4h-3q-2 0 -2 -2v-4q0 -1 2 -1h20h19q1 0 1 1v4q0 2 -2 2h-2q-3 0 -3 6v38q0 11 4 15q5 4 10 4q4 0 9 -4q4 -3 4 -15v-20q0 -15 -1 -20q0 -4 -3 -4h-2q-3 0 -3 -2v-3q0 -2 2 -2h20h22q1 0 1 2 v3q0 2 -2 2h-5q-5 0 -4 6v22v20q0 14 -8 21q-6 6 -19 6q-7 0 -15 -4q-8 -5 -9 -7z" />
<glyph unicode="o" d="M238 258q9 -4 5 -12q-3 -8 -12 -5l-234 97q-8 3 -5 12q3 8 12 5zM226 246q-4 8 5 12q8 3 12 -5l97 -235q4 -8 -5 -12q-8 -4 -12 5zM267 241q-9 -3 -12 5q-4 8 5 12l234 97q9 3 12 -5q3 -9 -5 -12zM255 253q4 8 12 5q9 -4 5 -12l-97 -235q-4 -9 -12 -5q-9 4 -5 12z M231 576q9 3 12 -5q4 -8 -5 -12l-234 -97q-9 -3 -12 5q-3 9 5 12zM243 564q-4 -8 -12 -5q-9 4 -5 12l97 235q4 9 12 5q9 -4 5 -12zM260 559q-9 4 -5 12q3 8 12 5l234 -97q8 -3 5 -12q-3 -8 -12 -5zM272 571q4 -8 -5 -12q-8 -3 -12 5l-97 235q-4 8 5 12q8 4 12 -5zM219 385 q11 -13 33 -13q20 0 32 13q12 14 12 29q0 18 -13 30q-12 12 -30 12q-15 0 -28 -10q-16 -13 -16 -31q0 -19 10 -30zM268 415q0 -35 -15 -35q-9 0 -13 8q-4 11 -4 26q0 20 6 29q3 5 10 5q16 0 16 -33z" />
<glyph unicode="p" d="M-8 468q-5 9 5 11q9 3 12 -5l166 -456q2 -9 -6 -12t-12 6zM489 474q3 8 12 5q10 -2 5 -11l-165 -456q-4 -10 -12 -6q-9 4 -6 12zM9 343q-3 -8 -12 -5q-9 2 -5 12l165 455q4 9 12 6t6 -12zM506 350q4 -10 -5 -12q-9 -3 -12 5l-166 456q-3 8 6 12q8 4 12 -6zM223 424v-69 v-20q-2 -5 -5 -5h-5q-2 0 -2 -2v-3q0 -2 2 -2h21h25q1 0 1 1v4q0 2 -1 2h-5q-7 0 -7 16v29q5 -3 14 -3q18 0 30.5 13.5t12.5 34.5q0 15 -10 26q-9 10 -23 10q-17 0 -24 -11h-1l-1 7q-2 4 -3 4t-5 -2l-25 -10l-1 -1v-3q0 -1 1 -1l5 -3q6 -4 6 -12zM247 394v44q5 5 12 5 q19 0 19 -39q0 -25 -15 -25q-5 0 -11 4q-5 4 -5 11z" />
<glyph unicode="q" d="M-7 465q-6 7 2 13q7 6 13 -2l331 -456q6 -7 -2 -13q-7 -6 -13 2zM490 476q6 8 13 2q8 -6 2 -13l-332 -456q-5 -7 -12 -2q-8 5 -2 13zM8 341q-6 -8 -13 -2q-8 6 -2 13l331 456q6 8 13 2q8 -6 2 -13zM505 352q6 -7 -2 -13q-7 -6 -13 2l-331 456q-6 8 2 13q7 5 12 -2z M282 456l-18 -5q-10 5 -20 5q-16 0 -26 -10q-17 -14 -17 -38q0 -18 10 -27t24 -9q13 0 22 6h1v-19q0 -23 -1 -26q0 -3 -5 -3h-4q-2 0 -2 -2v-3q0 -2 1 -2h22h23q2 0 2 1v5q-1 1 -2 1h-4q-4 0 -4 5q-1 6 -1 34v41q0 25 1 29q0 9 1 12v3l-1 2h-2zM258 432v-45q-5 -4 -12 -4 q-6 0 -11 7q-9 12 -8 33q0 26 16 26q5 0 10 -5.5t5 -11.5z" />
<glyph unicode="r" d="M8 467q-3 -8 -12 -5q-7 5 -4 13l166 331q4 9 12 5q9 -5 4 -13zM506 475q3 -8 -4 -13q-8 -3 -13 5l-165 331q-5 8 4 13q8 4 12 -5zM-8 342q-3 8 4 13q9 3 12 -5l166 -331q5 -8 -4 -13q-8 -4 -12 5zM489 350q5 8 13 5q7 -5 4 -13l-166 -331q-4 -9 -12 -5q-9 5 -4 13z M257 389v35q0 4 3 11q2 3 5 3t5 -1q2 -2 6 -2t8 3.5t4 7.5q0 11 -10 11q-13 0 -22 -18h-1l-2 14q0 3 -2 3h-1l-2 -1l-26 -12q-2 0 -2 -1v-2q0 -1 2 -1l3 -2q7 -6 7 -15v-16v-21q-1 -4 -5 -4h-5q-3 0 -3 -2v-3q0 -2 2 -2h23h27q1 0 1 1v4q0 2 -2 2h-7q-6 0 -6 8z" />
<glyph unicode="s" d="M498 190q9 0 9 -9q0 -10 -9 -10q-39 0 -66 27.5t-27 65.5t27 65.5t66 27.5q9 0 9 -10q0 -9 -9 -9q-30 0 -53 -21q-22 -24 -22 -53t22 -53q23 -21 53 -21zM498 190q9 0 9 -9q0 -10 -9 -10q-67 0 -111 -46q-46 -46 -46 -110q0 -9 -9 -9t-9 9q0 72 51 123.5t124 51.5zM0 171 q-9 0 -9 10q0 9 9 9q30 0 53 21q21 23 21 53t-21 53q-23 21 -53 21q-9 0 -9 9q0 10 9 10q38 0 65.5 -27.5t27.5 -65.5t-27.5 -65.5t-65.5 -27.5zM0 171q-9 0 -9 10q0 9 9 9q73 0 124 -51.5t51 -123.5q0 -9 -9 -9t-9 9q0 64 -46 110q-44 46 -111 46zM498 646q9 0 9 -10 q0 -9 -9 -9q-30 0 -53 -21q-22 -24 -22 -53q0 -30 22 -52t53 -22q9 0 9 -9q0 -10 -9 -10q-39 0 -66 27.5t-27 65.5t27 65.5t66 27.5zM498 646q9 0 9 -10q0 -9 -9 -9q-73 0 -124 51.5t-51 123.5q0 10 9 10t9 -10q0 -64 46 -110q44 -46 111 -46zM0 627q-9 0 -9 9q0 10 9 10 q38 0 65.5 -27.5t27.5 -65.5t-27.5 -65.5t-65.5 -27.5q-9 0 -9 10q0 9 9 9q31 0 53 22q21 21 21 52q0 30 -21 53q-23 21 -53 21zM0 627q-9 0 -9 9q0 10 9 10q67 0 111 46q46 46 46 110q0 10 9 10t9 -10q0 -72 -51 -123.5t-124 -51.5zM279 434l-3 14q0 2 -3 4q-12 4 -20 4 q-10 0 -20 -7t-10 -22q0 -16 23 -23q18 -6 18 -14q0 -11 -12 -11q-11 0 -16 9l-7 11q-1 1 -2 1l-3 -1q-1 0 -1 -2l2 -17q0 -2 1 -3q5 -5 22 -5q15 0 24.5 8t9.5 20q0 10 -6 16q-8 8 -20 10q-16 5 -16 12q0 10 11 10q5 0 12 -5l10 -11q1 -1 2 -1l3 2q1 0 1 1z" />
<glyph unicode="t" d="M76 565q-9 0 -9 9q0 10 9 10h90q9 0 9 -10q0 -9 -9 -9h-90zM8 465q-6 -8 -13 -2q-8 6 -2 13l76 104q6 8 13 2q8 -6 2 -13zM175 574q0 -9 -9 -9t-9 9v228q0 10 9 10t9 -10v-228zM421 584q10 0 10 -10q0 -9 -10 -9h-89q-9 0 -9 9q0 10 9 10h89zM505 476q6 -7 -2 -13 q-7 -6 -13 2l-76 104q-6 7 2 13q7 6 13 -2zM341 574q0 -9 -9 -9t-9 9v228q0 10 9 10t9 -10v-228zM76 234q-9 0 -9 9t9 9h90q9 0 9 -9t-9 -9h-90zM-7 341q-6 7 2 13q7 6 13 -2l76 -104q6 -7 -2 -13q-7 -6 -13 2zM157 243q0 9 9 9t9 -9v-228q0 -9 -9 -9t-9 9v228zM421 252 q10 0 10 -9t-10 -9h-89q-9 0 -9 9t9 9h89zM490 352q6 8 13 2q8 -6 2 -13l-76 -104q-6 -8 -13 -2q-8 6 -2 13zM323 243q0 9 9 9t9 -9v-228q0 -9 -9 -9t-9 9v228zM255 402v14v26h22q2 0 2 1l2 8q0 2 -1 2h-24l1 20q0 3 -3 3q-1 0 -3 -2q-16 -19 -29 -25q-4 -1 -4 -5q0 -2 3 -2 h10v-25q0 -3 -0.5 -14t-0.5 -14q0 -17 21 -17q15 0 26 7q2 2 1 3l-1 2q-1 1 -2 1q-3 -2 -10 -2q-10 0 -10 19z" />
<glyph unicode="u" d="M498 356q9 0 9 -10q0 -9 -9 -9h-90q-9 0 -9 9q0 10 9 10h90zM401 352q5 7 12 2q8 -5 2 -13l-76 -104q-6 -8 -13 -2q-8 6 -2 13zM323 243q0 9 9 9t9 -9v-228q0 -9 -9 -9t-9 9v228zM0 337q-9 0 -9 9q0 10 9 10h90q9 0 9 -10q0 -9 -9 -9h-90zM82 341q-6 7 2 13q7 6 13 -2 l76 -104q6 -8 -2 -13q-7 -5 -12 2zM157 243q0 9 9 9t9 -9v-228q0 -9 -9 -9t-9 9v228zM498 480q9 0 9 -9q0 -10 -9 -10h-90q-9 0 -9 10q0 9 9 9h90zM415 476q6 -8 -2 -13q-7 -5 -12 2l-77 104q-6 7 2 13q7 6 13 -2zM341 574q0 -9 -9 -9t-9 9v228q0 10 9 10t9 -10v-228zM0 461 q-9 0 -9 10q0 9 9 9h90q9 0 9 -9q0 -10 -9 -10h-90zM97 465q-6 -8 -13 -2q-8 6 -2 13l77 104q5 7 12 2q8 -5 2 -13zM175 574q0 -9 -9 -9t-9 9v228q0 10 9 10t9 -10v-228zM273 372l26 7l1 1l-1 4q0 1 -2 1q-2 -1 -6 -1q-3 0 -4 7v21v14q0 8 0.5 14t0.5 9v3q0 2 -1 2h-1l-2 -1 h-3h-28q-2 0 -2 -2v-3l3 -2q8 0 8 -6v-44q0 -4 -3 -7q-3 -6 -10 -6q-6 0 -9 4q-4 6 -4 29v10v13v9l1 3q0 3 -2 3q-1 -1 -2 -1h-3h-27q-2 0 -2 -2v-3q0 -1 4 -2q5 0 7 -6v-19v-8q0 -23 7 -33q6 -8 19 -8q18 0 25 12h1l1 -10q2 -2 4 -2h4z" />
<glyph unicode="v" d="M166 252q9 0 9 -9t-9 -9q-43 0 -74 -31t-31 -74t31 -74t74 -31q9 0 9 -9t-9 -9q-51 0 -87 36t-36 87t36 87t87 36zM76 234q-9 0 -9 9t9 9h90q9 0 9 -9t-9 -9h-90zM-7 341q-6 7 2 13q7 6 13 -2l76 -104q6 -7 -2 -13q-7 -6 -13 2zM332 234q-9 0 -9 9t9 9q51 0 87 -36 t36 -87t-36 -87t-87 -36q-9 0 -9 9t9 9q43 0 74 31t31 74t-31 74t-74 31zM421 252q10 0 10 -9t-10 -9h-89q-9 0 -9 9t9 9h89zM490 352q6 8 13 2q8 -6 2 -13l-76 -104q-6 -8 -13 -2q-8 6 -2 13zM166 584q9 0 9 -10q0 -9 -9 -9q-51 0 -87 36t-36 87t36 87.5t87 36.5q9 0 9 -10 q0 -9 -9 -9q-43 0 -74 -31t-31 -74t31 -74q30 -30 74 -30zM76 565q-9 0 -9 9q0 10 9 10h90q9 0 9 -10q0 -9 -9 -9h-90zM8 465q-6 -8 -13 -2q-8 6 -2 13l76 104q6 8 13 2q8 -6 2 -13zM332 565q-9 0 -9 9q0 10 9 10q44 0 74 30q31 31 31 74t-31 74t-74 31q-9 0 -9 9q0 10 9 10 q51 0 87 -36.5t36 -87.5t-36 -87t-87 -36zM421 584q10 0 10 -10q0 -9 -10 -9h-89q-9 0 -9 9q0 10 9 10h89zM505 476q6 -7 -2 -13q-7 -6 -13 2l-76 104q-6 7 2 13q7 6 13 -2zM201 452v-4q0 -2 1 -2h4q4 0 8 -6q4 -12 11 -26q0 -1 8.5 -19t8.5 -19q3 -5 6 -5t5 4q12 24 18 39 q9 21 16 30q2 2 9 2h3q1 0 1 2v4q0 2 -2 2h-5q-5 -1 -11 -1q-5 0 -9 0.5t-6 0.5h-3t-1 -2v-4v-2h4q7 0 5 -8q-2 -4 -5.5 -13t-6.5 -16t-3 -8h-2l-8 21q0 1 -2 6t-3.5 9.5t-1.5 5.5q0 3 5 3h3q1 0 1 2v4q0 2 -2 2h-3t-6.5 -0.5t-10.5 -0.5q-8 0 -13.5 0.5t-7.5 0.5h-3 q-2 0 -2 -2z" />
<glyph unicode="w" d="M166 6q-9 0 -9 9t9 9q43 0 74 31t31 74t-31 74t-74 31q-9 0 -9 9t9 9q51 0 87 -36t36 -87t-36 -87t-87 -36zM76 234q-9 0 -9 9t9 9h90q9 0 9 -9t-9 -9h-90zM-7 341q-6 7 2 13q7 6 13 -2l76 -104q6 -7 -2 -13q-7 -6 -13 2zM332 24q9 0 9 -9t-9 -9q-51 0 -87 36t-36 87 t36 87t87 36q9 0 9 -9t-9 -9q-43 0 -74 -31t-31 -74t31 -74t74 -31zM421 252q10 0 10 -9t-10 -9h-89q-9 0 -9 9t9 9h89zM490 352q6 8 13 2q8 -6 2 -13l-76 -104q-6 -8 -13 -2q-8 6 -2 13zM166 793q-9 0 -9 9q0 10 9 10q51 0 87 -36.5t36 -87.5t-36 -87t-87 -36q-9 0 -9 9 q0 10 9 10q44 0 74 30q31 31 31 74t-31 74t-74 31zM76 565q-9 0 -9 9q0 10 9 10h90q9 0 9 -10q0 -9 -9 -9h-90zM8 465q-6 -8 -13 -2q-8 6 -2 13l76 104q6 8 13 2q8 -6 2 -13zM332 812q9 0 9 -10q0 -9 -9 -9q-43 0 -74 -31t-31 -74t31 -74q30 -30 74 -30q9 0 9 -10 q0 -9 -9 -9q-51 0 -87 36t-36 87t36 87.5t87 36.5zM421 584q10 0 10 -10q0 -9 -10 -9h-89q-9 0 -9 9q0 10 9 10h89zM505 476q6 -7 -2 -13q-7 -6 -13 2l-76 104q-6 7 2 13q7 6 13 -2zM181 452v-4q0 -2 1 -2h2q4 0 7 -5l27 -66q2 -4 4 -4t4 3l21 50h1l19 -48q3 -5 5 -5t4 3 q1 3 14.5 34.5t14.5 33.5q1 4 7 4h2q2 0 2 2v4q0 2 -2 2h-4q-4 -1 -9 -1t-9 0.5t-6 0.5h-3q-1 -1 -1 -2v-4q0 -2 1 -2h3q8 0 4 -13l-10 -29h-1l-13 37q-2 4 2 4h3q1 0 1 2v4q0 1 -2 1h-16h-20q-1 0 -1 -1v-4q0 -2 1 -2h2q3 0 4 -1q4 -6 2 -11l-11 -30h-1l-13 39q-1 4 1 4h3 q1 0 1 2v4q0 2 -1 2t-6 -0.5t-11 -0.5h-9.5t-6.5 0.5t-3.5 0.5h-2.5t-1 -2z" />
<glyph unicode="x" d="M498 190q9 0 9 -9q0 -10 -9 -10q-39 0 -66 27.5t-27 65.5t27 65.5t66 27.5q9 0 9 -10q0 -9 -9 -9q-30 0 -53 -21q-22 -24 -22 -53t22 -53q23 -21 53 -21zM332 6q-9 0 -9 9t9 9q65 0 111 46q45 45 45 111q0 9 10 9q9 0 9 -9q0 -73 -51 -124t-124 -51zM0 171q-9 0 -9 10 q0 9 9 9q30 0 53 21q21 23 21 53t-21 53q-23 21 -53 21q-9 0 -9 9q0 10 9 10q38 0 65.5 -27.5t27.5 -65.5t-27.5 -65.5t-65.5 -27.5zM166 24q9 0 9 -9t-9 -9q-73 0 -124 51t-51 124q0 9 9 9t9 -9q0 -65 46 -111t111 -46zM498 646q9 0 9 -10q0 -9 -9 -9q-30 0 -53 -21 q-22 -24 -22 -53q0 -30 22 -52t53 -22q9 0 9 -9q0 -10 -9 -10q-39 0 -66 27.5t-27 65.5t27 65.5t66 27.5zM332 793q-9 0 -9 9q0 10 9 10q73 0 124 -51.5t51 -124.5q0 -9 -9 -9q-10 0 -10 9q0 66 -45 111q-46 46 -111 46zM0 627q-9 0 -9 9q0 10 9 10q38 0 65.5 -27.5 t27.5 -65.5t-27.5 -65.5t-65.5 -27.5q-9 0 -9 10q0 9 9 9q31 0 53 22q21 21 21 52q0 30 -21 53q-23 21 -53 21zM166 812q9 0 9 -10q0 -9 -9 -9q-65 0 -111 -46t-46 -111q0 -9 -9 -9t-9 9q0 73 51 124.5t124 51.5zM294 375v4q0 2 -1 2h-3q-3 0 -6 4q-2 2 -25 35q8 12 20 24 q2 2 8 2h2q2 0 2 2v4q0 2 -2 2h-1q-1 0 -2.5 -0.5t-4 -0.5h-5.5q-6 0 -11 1h-5q-1 0 -1 -2v-4q0 -1 1 -1h2q3 0 3.5 -3t-1.5 -6l-9 -12l-9 15q-2 1 -2 3.5t2 2.5h1q1 0 1 1v4q0 2 -1 2h-6q-6 -1 -11 -1q-7 0 -12 0.5t-8 0.5h-2q-2 0 -2 -2v-4q0 -2 2 -2h2q5 0 7 -2 q13 -17 23 -34q-19 -24 -23 -26q-5 -3 -8 -3h-3q-2 0 -2 -2v-3q0 -2 2 -2h15h16q1 0 1 1v4q0 2 -1 2h-2q-7 0 -3 4q6 12 12 19l11 -18q1 -2 0 -3.5t-2 -1.5q-2 0 -2 -2v-4q0 -1 2 -1h18h22q1 0 1 1z" />
<glyph unicode="y" d="M0 109q-9 0 -9 9q0 10 9 10q44 0 74 30q31 31 31 74t-31 74t-74 31q-9 0 -9 9q0 10 9 10q51 0 87 -36.5t36 -87.5t-36 -87t-87 -36zM90 128q9 0 9 -10q0 -9 -9 -9h-90q-9 0 -9 9q0 10 9 10h90zM173 20q6 -8 -2 -13q-7 -5 -12 2l-77 104q-6 7 2 13q7 6 13 -2zM498 128 q9 0 9 -10q0 -9 -9 -9q-51 0 -87.5 36t-36.5 87t36.5 87.5t87.5 36.5q9 0 9 -10q0 -9 -9 -9q-43 0 -74 -31t-31 -74t31 -74q30 -30 74 -30zM408 109q-9 0 -9 9q0 10 9 10h90q9 0 9 -10q0 -9 -9 -9h-90zM339 9q-5 -7 -13 -2q-8 6 -2 13l77 104q5 7 12 2q8 -5 2 -13zM0 689 q-9 0 -9 10q0 9 9 9q51 0 87 -36t36 -87t-36 -87.5t-87 -36.5q-9 0 -9 10q0 9 9 9q43 0 74 31t31 74t-31 74q-30 30 -74 30zM90 708q9 0 9 -9q0 -10 -9 -10h-90q-9 0 -9 10q0 9 9 9h90zM159 808q5 7 12 2q8 -5 2 -13l-76 -104q-6 -8 -13 -2q-8 6 -2 13zM498 708q9 0 9 -9 q0 -10 -9 -10q-44 0 -74 -30q-31 -31 -31 -74t31 -74t74 -31q9 0 9 -9q0 -10 -9 -10q-51 0 -87.5 36.5t-36.5 87.5t36.5 87t87.5 36zM408 689q-9 0 -9 10q0 9 9 9h90q9 0 9 -9q0 -10 -9 -10h-90zM324 797q-6 7 2 13q8 5 13 -2l76 -104q6 -8 -2 -13q-7 -5 -12 2zM209 334 q0 -11 12 -11q9 0 17 13q6 9 21 44q6 12 13.5 27.5t12 24.5l5.5 11q2 3 7 3h2q1 0 1 2v4q0 2 -1 2h-5q-4 -1 -9 -1t-8.5 0.5t-5.5 0.5h-3t-1 -2v-4q0 -2 1 -2h3q6 0 5 -7l-16 -40h-1q-1 2 -4 12l-6 20t-3 11q0 4 4 4h2q1 0 1 2v4q0 2 -1 2h-3.5t-6.5 -0.5t-9 -0.5h-10.5 t-6.5 0.5t-3.5 0.5h-2.5q-2 0 -2 -2v-4q0 -2 2 -2h3q4 0 7 -8l12 -32q13 -32 14 -36q-8 -25 -14 -28q-3 -2 -6 1q-6 2 -8 2q-9 0 -9 -11z" />
<glyph unicode="z" d="M442 349q2 10 11 6q10 -2 6 -11q-14 -46 -46.5 -82t-76.5 -56q-9 -4 -13 5q-3 8 5 12q40 17 70 50.5t44 75.5zM498 356q9 0 9 -10q0 -9 -9 -9h-47q-9 0 -9 9q0 10 9 10h47zM341 15q0 -9 -9 -9t-9 9v200q0 9 9 9t9 -9v-200zM39 344q-4 9 6 11q9 4 11 -6q14 -42 44 -75.5 t70 -50.5q7 -4 4 -12t-12 -5q-93 41 -123 138zM0 337q-9 0 -9 9q0 10 9 10h47q9 0 9 -10q0 -9 -9 -9h-47zM175 15q0 -9 -9 -9t-9 9v200q0 9 9 9t9 -9v-200zM459 473q4 -9 -6 -11q-9 -4 -11 6q-28 89 -114 126q-8 4 -5 12q4 9 13 5q44 -20 76.5 -56t46.5 -82zM498 480 q9 0 9 -9q0 -10 -9 -10h-47q-9 0 -9 10q0 9 9 9h47zM323 802q0 10 9 10t9 -10v-200q0 -9 -9 -9t-9 9v200zM56 468q-2 -10 -11 -6q-10 2 -6 11q30 97 123 138q9 3 12 -5t-4 -12q-86 -37 -114 -126zM0 461q-9 0 -9 10q0 9 9 9h47q9 0 9 -9q0 -10 -9 -10h-47zM157 802 q0 10 9 10t9 -10v-200q0 -9 -9 -9t-9 9v200zM259 381h-17l45 68q2 4 -2 4h-29q-19 0 -26 1q-2 1 -6 1q-3 1 -5 1l-10 -27v-2l3 -1q0 -2 2 0q16 20 29 20h13l-43 -67q-3 -5 1 -5h22h22q16 0 22 -2l13 25q0 2 -1 2l-2 2q-2 2 -3 -1q-17 -19 -28 -19z" />
<glyph unicode="&#xa0;" d="M240 469q0 9 9 9t9 -9v-121q0 -10 -9 -10t-9 10v121zM188 399q-9 0 -9 9t9 9h122q9 0 9 -9t-9 -9h-122zM91 143q-4 8 5 12q8 6 12 -4l66 -133q6 -8 -4 -12q-8 -4 -12 4zM105 154q8 -6 2 -13q-5 -7 -13 -1q-47 35 -75 89t-28 117q0 9 9 9t9 -9q0 -57 27 -109 q25 -49 69 -83zM390 151q4 10 13 4q8 -4 4 -12l-67 -133q-4 -8 -12 -4q-8 3 -4 12zM404 140q-8 -6 -13 1q-6 7 2 13q43 33 70 83q26 54 26 109q0 9 9 9t9 -9q0 -63 -28 -117t-75 -89zM108 665q-4 -8 -12 -4q-8 5 -5 13l67 132q4 9 12 5q9 -5 4 -13zM94 677q7 6 13 -2 q6 -7 -2 -13q-45 -35 -69 -83q-27 -51 -27 -109q0 -9 -9 -9t-9 9q0 64 28 118q26 51 75 89zM407 674q3 -8 -4 -13q-9 -4 -13 4l-66 133q-3 9 4 13q8 4 12 -5zM393 662q-8 6 -2 13q6 8 13 2q49 -38 75 -89q28 -54 28 -118q0 -9 -9 -9t-9 9q0 57 -26 109q-25 49 -70 83z" />
<glyph unicode="&#xaa;" d="M323 802q0 10 9 10t9 -10q0 -141 -100 -241t-241 -100q-9 0 -9 10q0 9 9 9q134 0 228 94q95 95 95 228zM498 480q9 0 9 -9q0 -10 -9 -10q-142 0 -241.5 100t-99.5 241q0 10 9 10t9 -10q0 -133 95 -228q94 -94 228 -94zM175 15q0 -9 -9 -9t-9 9q0 141 99.5 241t241.5 100 q9 0 9 -10q0 -9 -9 -9q-134 0 -228 -94q-95 -95 -95 -228zM0 337q-9 0 -9 9q0 10 9 10q141 0 241 -100t100 -241q0 -9 -9 -9t-9 9q0 133 -95 228q-94 94 -228 94zM250 434v-10q-3 -2 -24 -12q-16 -8 -16 -23q0 -17 13 -17q9 0 13 1q7 2 16 10h1q5 -11 18 -11t19 12q2 3 -1 3 l-2 2q-1 0 -2 -1q-2 -4 -6 -4t-4 13v37q0 11 -6 16q-6 6 -19 6q-20 0 -36 -14q-5 -5 -5 -13q0 -7 8 -7q12 0 12 11q0 10 1 11q4 3 10 3q5 0 8 -3q2 -2 2 -10zM251 417v-27q0 -5 -9 -7q-8 0 -8 13q0 3 0.5 5.5t1.5 4t3 3.5t3 2.5t4.5 2.5t4.5 3z" />
<glyph unicode="&#xba;" d="M238 258q9 -4 5 -12q-3 -8 -12 -5l-234 97q-8 3 -5 12q3 8 12 5zM226 246q-4 8 5 12q8 3 12 -5l97 -235q4 -8 -5 -12q-8 -4 -12 5zM267 241q-9 -3 -12 5q-4 8 5 12l234 97q9 3 12 -5q3 -9 -5 -12zM255 253q4 8 12 5q9 -4 5 -12l-97 -235q-4 -9 -12 -5q-9 4 -5 12z M231 576q9 3 12 -5q4 -8 -5 -12l-234 -97q-9 -3 -12 5q-3 9 5 12zM243 564q-4 -8 -12 -5q-9 4 -5 12l97 235q4 9 12 5q9 -4 5 -12zM260 559q-9 4 -5 12q3 8 12 5l234 -97q8 -3 5 -12q-3 -8 -12 -5zM272 571q4 -8 -5 -12q-8 -3 -12 5l-97 235q-4 8 5 12q8 4 12 -5zM219 385 q11 -13 33 -13q20 0 32 13q12 14 12 29q0 18 -13 30q-12 12 -30 12q-15 0 -28 -10q-16 -13 -16 -31q0 -19 10 -30zM268 415q0 -35 -15 -35q-9 0 -13 8q-4 11 -4 26q0 20 6 29q3 5 10 5q16 0 16 -33z" />
<glyph unicode="&#x152;" horiz-adv-x="995" d="M497 338q-9 0 -9 9t9 9q54 0 98 -30q42 -27 64 -77q13 -34 13 -68q0 -9 -9 -9t-9 9q0 48 -27 88q-26 39 -69 57q-29 12 -61 12zM654 181q0 10 9 10t9 -10v-166q0 -10 -9 -10t-9 10v166zM497 461q-9 0 -9 9t9 9q48 0 88 27q39 26 57 69q12 27 12 61q0 9 9 9t9 -9 q0 -54 -30 -98q-27 -42 -77 -64q-30 -13 -68 -13zM672 636q0 -10 -9 -10t-9 10v166q0 10 9 10t9 -10v-166zM995 356q9 0 9 -9t-9 -9q-48 0 -88 -27q-39 -27 -56 -69q-13 -29 -13 -61q0 -9 -9 -9t-9 9q0 54 30 98q29 43 77 64q30 13 68 13zM820 181q0 10 9 10t9 -10v-166 q0 -10 -9 -10t-9 10v166zM995 479q9 0 9 -9t-9 -9q-53 0 -98 29q-43 29 -63 78q-14 31 -14 68q0 9 9 9t9 -9q0 -48 27 -88q26 -39 69 -57q29 -12 61 -12zM838 636q0 -10 -9 -10t-9 10v166q0 10 9 10t9 -10v-166zM752 414h38l-38 38v-38zM752 402v-37l38 37h-38zM740 402h-37 l37 -37v37zM740 414v38l-37 -38h37zM238 257q8 -3 5 -12q-4 -8 -12 -5l-234 98q-9 2 -5 12q4 8 12 5zM226 245q-3 8 5 12q9 3 12 -5l98 -234q3 -8 -5 -12q-10 -4 -12 5zM267 240q-8 -3 -12 5q-3 9 5 12l234 98q10 4 12 -5q4 -10 -5 -12zM255 252q3 8 12 5q8 -3 5 -12 l-97 -234q-4 -9 -12 -5q-8 3 -5 12zM231 576q9 3 12 -5q3 -9 -5 -12l-234 -97q-9 -3 -12 5q-3 9 5 12zM243 564q-3 -8 -12 -5q-8 4 -5 12l98 235q2 9 12 5q9 -4 5 -12zM260 559q-8 3 -5 12q3 8 12 5l234 -97q8 -3 5 -12q-2 -9 -12 -5zM272 571q3 -9 -5 -12q-9 -3 -12 5 l-97 235q-4 8 5 12q8 4 12 -5zM179 471q-9 0 -9 9q0 10 9 10q25 0 45 -14q22 -15 30 -36q6 -15 6 -32q0 -25 -14 -45q-15 -22 -36 -30q-14 -6 -31 -6q-9 0 -9 9t9 9q19 0 35 11t23 28q5 12 5 24q0 19 -11 35q-11 17 -28 23q-9 5 -24 5zM323 345q9 0 9 -9t-9 -9q-25 0 -45 14 q-22 15 -30 36q-6 13 -6 31q0 26 14 46q12 19 35 29q17 7 32 7q9 0 9 -10q0 -9 -9 -9q-18 0 -35 -10q-15 -11 -23 -28q-5 -13 -5 -25q0 -19 11 -35t28 -23q12 -5 24 -5z" />
<glyph unicode="&#x153;" horiz-adv-x="996" d="M498 338q-9 0 -9 9q0 10 9 10q73 0 124 -51.5t51 -123.5q0 -10 -9 -10t-9 10q0 64 -46 110q-44 46 -111 46zM655 182q0 9 9 9t9 -9v-167q0 -9 -9 -9t-9 9v167zM498 461q-9 0 -9 9t9 9q65 0 111 46t46 111q0 9 9 9t9 -9q0 -73 -51 -124t-124 -51zM673 636q0 -9 -9 -9t-9 9 v166q0 10 9 10t9 -10v-166zM996 357q9 0 9 -10q0 -9 -9 -9q-67 0 -111 -46q-46 -46 -46 -110q0 -10 -9 -10t-9 10q0 72 51 123.5t124 51.5zM821 182q0 9 9 9t9 -9v-167q0 -9 -9 -9t-9 9v167zM996 479q9 0 9 -9t-9 -9q-73 0 -124 51t-51 124q0 9 9 9t9 -9q0 -65 46 -111 t111 -46zM839 636q0 -9 -9 -9t-9 9v166q0 10 9 10t9 -10v-166zM732 416v5h43q6 0 6 3q0 4 -1.5 10t-9.5 14t-21 8q-22 0 -33 -16q-8 -12 -8 -27q0 -19 13 -33q8 -8 28 -8q23 0 33 19q2 5 0 5l-3 2q-1 0 -2 -1q-5 -10 -20 -10q-25 0 -25 29zM750 428h-18q3 20 15 20 q9 0 9 -16q0 -4 -6 -4zM238 258q9 -4 5 -12q-3 -8 -12 -5l-234 97q-8 3 -5 12q3 8 12 5zM226 246q-4 8 5 12q8 3 12 -5l97 -235q4 -8 -5 -12q-8 -4 -12 5zM267 241q-9 -3 -12 5q-4 8 5 12l234 97q9 3 12 -5q3 -9 -5 -12zM255 253q4 8 12 5q9 -4 5 -12l-97 -235q-4 -9 -12 -5 q-9 4 -5 12zM231 576q9 3 12 -5q4 -8 -5 -12l-234 -97q-9 -3 -12 5q-3 9 5 12zM243 564q-4 -8 -12 -5q-9 4 -5 12l97 235q4 9 12 5q9 -4 5 -12zM260 559q-9 4 -5 12q3 8 12 5l234 -97q8 -3 5 -12q-3 -8 -12 -5zM272 571q4 -8 -5 -12q-8 -3 -12 5l-97 235q-4 8 5 12 q8 4 12 -5zM219 385q11 -13 33 -13q20 0 32 13q12 14 12 29q0 18 -13 30q-12 12 -30 12q-15 0 -28 -10q-16 -13 -16 -31q0 -19 10 -30zM268 415q0 -35 -15 -35q-9 0 -13 8q-4 11 -4 26q0 20 6 29q3 5 10 5q16 0 16 -33z" />
<glyph unicode="&#x2000;" horiz-adv-x="406" />
<glyph unicode="&#x2001;" horiz-adv-x="812" />
<glyph unicode="&#x2002;" horiz-adv-x="406" />
<glyph unicode="&#x2003;" horiz-adv-x="812" />
<glyph unicode="&#x2004;" horiz-adv-x="270" />
<glyph unicode="&#x2005;" horiz-adv-x="203" />
<glyph unicode="&#x2006;" horiz-adv-x="135" />
<glyph unicode="&#x2007;" horiz-adv-x="135" />
<glyph unicode="&#x2008;" horiz-adv-x="101" />
<glyph unicode="&#x2009;" horiz-adv-x="162" />
<glyph unicode="&#x200a;" horiz-adv-x="45" />
<glyph unicode="&#x2013;" horiz-adv-x="500" d="M100 250v100h300v-100h-300z" />
<glyph unicode="&#x2014;" horiz-adv-x="1000" d="M100 250v100h800v-100h-800z" />
<glyph unicode="&#x202f;" horiz-adv-x="162" />
<glyph unicode="&#x205f;" horiz-adv-x="203" />
<glyph unicode="&#x2122;" horiz-adv-x="996" d="M492 341q-7 6 0 13q6 6 13 0l166 -166q6 -7 0 -13q-7 -7 -13 0zM671 21q6 -7 0 -13q-7 -7 -13 0l-84 83q-7 7 0 13q7 7 13 0zM658 188q6 6 13 0q6 -7 0 -13l-84 -84q-6 -6 -13 0q-7 7 0 13zM989 354q7 6 13 0q7 -7 0 -13l-165 -166q-7 -7 -13 0q-7 6 0 13zM837 8 q-7 -7 -13 0q-7 6 0 13l83 83q7 6 13 0q7 -6 0 -13zM824 175q-7 6 0 13q6 6 13 0l83 -84q7 -6 0 -13q-6 -5 -13 0zM505 463q-7 -7 -13 0q-7 6 0 13l166 166q6 6 13 0q6 -7 0 -13zM658 809q6 6 13 0q6 -7 0 -13l-84 -84q-6 -6 -13 0q-7 7 0 13zM671 642q6 -7 0 -13 q-7 -7 -13 0l-84 83q-7 7 0 13q7 7 13 0zM1002 476q7 -7 0 -13q-6 -7 -13 0l-165 166q-7 6 0 13q6 6 13 0zM824 796q-7 6 0 13q6 6 13 0l83 -84q7 -6 0 -13q-6 -5 -13 0zM837 629q-7 -7 -13 0q-7 6 0 13l83 83q7 7 13 0q7 -6 0 -13zM795 408q0 20 -14 34.5t-34 14.5 t-34 -14.5t-14 -34.5t14 -34t34 -14t34 14t14 34zM775 313q0 12 -8 20t-20 8t-20 -8t-8 -20q0 -11 8 -19.5t20 -8.5t20 8.5t8 19.5zM765 250q0 8 -5.5 13t-12.5 5t-12.5 -5t-5.5 -13t5.5 -13t12.5 -5t12.5 5t5.5 13zM719 503q0 -11 8 -19.5t20 -8.5t20 8.5t8 19.5 q0 12 -8 20.5t-20 8.5t-20 -8.5t-8 -20.5zM729 566q0 -7 5.5 -12t12.5 -5t12.5 5t5.5 12q0 8 -5.5 13t-12.5 5t-12.5 -5t-5.5 -13zM76 565q-9 0 -9 9t9 9h90q9 0 9 -9t-9 -9h-90zM8 465q-6 -8 -13 -2q-8 6 -2 13l76 104q6 8 13 2q8 -6 2 -13zM175 574q0 -9 -9 -9t-9 9v228 q0 10 9 10t9 -10v-228zM422 583q9 0 9 -9t-9 -9h-90q-9 0 -9 9t9 9h90zM505 476q6 -8 -2 -13q-7 -5 -12 2l-77 104q-6 7 2 13q7 6 13 -2zM341 574q0 -9 -9 -9t-9 9v228q0 10 9 10t9 -10v-228zM76 233q-9 0 -9 9q0 10 9 10h90q9 0 9 -10q0 -9 -9 -9h-90zM-7 341q-5 7 2 12 q8 6 13 -1l76 -104q6 -7 -2 -13q-7 -6 -13 2zM157 242q0 10 9 10t9 -10v-228q0 -9 -9 -9t-9 9v228zM422 252q9 0 9 -10q0 -9 -9 -9h-90q-9 0 -9 9q0 10 9 10h90zM491 352q5 6 12 1q8 -5 2 -12l-76 -104q-6 -8 -13 -2q-8 6 -2 13zM323 242q0 10 9 10t9 -10v-228q0 -9 -9 -9 t-9 9v228zM234 424l-40 77l-38 -37zM264 393l41 -78l37 38zM264 424l78 40l-37 37zM234 393l-78 -40l38 -37z" />
<glyph unicode="&#xe000;" horiz-adv-x="810" d="M0 810h810v-810h-810v810z" />
<glyph unicode="&#xfb01;" horiz-adv-x="996" d="M989 354q7 7 13 0q6 -6 0 -13l-166 -166q-6 -6 -13 0q-6 7 0 13zM830 191q9 0 9 -9q0 -10 -9 -10q-30 0 -53 -21q-21 -23 -21 -53q0 -31 21 -52q22 -22 53 -22q9 0 9 -9t-9 -9q-38 0 -65.5 27t-27.5 65t27.5 65.5t65.5 27.5zM492 341q-6 7 0 13q6 7 13 0l166 -166 q6 -6 0 -13q-7 -6 -13 0zM664 172q-9 0 -9 10q0 9 9 9q38 0 65.5 -27.5t27.5 -65.5t-27.5 -65t-65.5 -27q-9 0 -9 9t9 9q31 0 53 22q21 21 21 52q0 30 -21 53q-23 21 -53 21zM1002 476q6 -6 0 -13t-13 0l-166 166q-6 6 0 13q7 6 13 0zM830 645q9 0 9 -10q0 -9 -9 -9 q-38 0 -65.5 27.5t-27.5 65.5t27.5 65.5t65.5 27.5q9 0 9 -10q0 -9 -9 -9q-31 0 -53 -22q-21 -21 -21 -52q0 -30 21 -53q23 -21 53 -21zM505 463q-7 -7 -13 0t0 13l166 166q6 6 13 0q6 -7 0 -13zM664 626q-9 0 -9 9q0 10 9 10q30 0 53 21q21 23 21 53q0 31 -21 52 q-22 22 -53 22q-9 0 -9 9q0 10 9 10q38 0 65.5 -27.5t27.5 -65.5t-27.5 -65.5t-65.5 -27.5zM770 374q2 0 2 2v3q0 2 -2 2h-7q-3 0 -3 5v16v20v31q0 3 -2 3h-2q-2 -1 -3 -1l-28 -9l-2 -2v-2q0 -2 3 -3q9 -4 9 -12v-26v-16q-1 -4 -4 -4h-7q-2 0 -2 -2v-3q0 -2 2 -2h20h26z M745 470q14 1 14 13q0 11 -13 11q-14 0 -14 -11q0 -13 13 -13zM323 182q0 9 9 9t9 -9v-167q0 -9 -9 -9t-9 9v167zM491 354q7 7 13 0q6 -6 0 -13l-166 -166q-6 -6 -13 0q-6 7 0 13zM157 182q0 9 9 9t9 -9v-167q0 -9 -9 -9t-9 9v167zM-6 341q-6 7 0 13q6 7 13 0l166 -166 q6 -6 0 -13q-7 -6 -13 0zM341 636q0 -9 -9 -9t-9 9v166q0 10 9 10t9 -10v-166zM504 476q7 -6 0 -13q-6 -6 -13 0l-166 166q-6 7 0 13q7 7 13 0zM175 636q0 -9 -9 -9t-9 9v166q0 10 9 10t9 -10v-166zM7 463q-7 -6 -13 0q-7 7 0 13l166 166q6 7 13 0q6 -6 0 -13zM252 427v16 h20q2 0 2 1l1 7q0 2 -1 2h-22v8q0 32 2 36q4 6 10 6q3 0 6 -6q4 -7 13 -7q10 0 10 9q0 13 -19 13t-32 -13q-16 -14 -16 -40v-6h-9q-3 0 -3 -1l-1 -7q0 -2 1 -2h12l1 -56q0 -6 -5 -6h-6l-2 -1v-5q0 -1 1 -1h24h26q1 0 1 2v3q0 2 -2 2h-7q-5 0 -5 6v40z" />
<glyph unicode="&#xfb02;" horiz-adv-x="996" d="M492 174q-6 6 0 13t13 0l166 -166q6 -6 0 -13q-7 -6 -13 0zM492 341q-6 7 0 13q6 7 13 0l83 -83q7 -7 0 -14q-6 -6 -13 0zM505 174q-7 -7 -13 0q-6 6 0 13l83 84q7 6 13 0q7 -7 0 -13zM989 187q7 7 13 0t0 -13l-166 -166q-6 -6 -13 0q-6 7 0 13zM989 354q7 7 13 0 q6 -6 0 -13l-83 -84q-7 -6 -13 0q-7 7 0 14zM1002 187q6 -7 0 -13q-6 -7 -13 0l-83 84q-7 6 0 13q6 6 13 0zM505 630q-7 -7 -13 0q-6 6 0 13l166 166q6 6 13 0q6 -7 0 -13zM505 463q-7 -7 -13 0t0 13l83 84q7 6 13 0q7 -7 0 -14zM492 630q-6 6 0 13t13 0l83 -83q7 -7 0 -14 q-6 -6 -13 0zM1002 643q6 -7 0 -13q-6 -7 -13 0l-166 166q-6 6 0 13q7 6 13 0zM1002 476q6 -6 0 -13t-13 0l-83 83q-7 7 0 14q6 6 13 0zM989 643q7 7 13 0t0 -13l-83 -84q-7 -6 -13 0q-7 7 0 14zM766 412v35v62q0 3 -2 3t-4 -1q-8 -5 -33 -11l-2 -1v-3q0 -2 2 -2l3 -1 q10 -3 10 -11q1 -5 1 -34v-59q0 -8 -5 -8h-6q-3 0 -3 -2v-3q0 -2 2 -2h25h24q1 0 1 2v3q0 2 -2 2h-6q-5 0 -5 6v25zM323 182q0 9 9 9t9 -9v-167q0 -9 -9 -9t-9 9v167zM491 354q7 7 13 0q6 -6 0 -13l-166 -166q-6 -6 -13 0q-6 7 0 13zM157 182q0 9 9 9t9 -9v-167q0 -9 -9 -9 t-9 9v167zM-6 341q-6 7 0 13q6 7 13 0l166 -166q6 -6 0 -13q-7 -6 -13 0zM341 636q0 -9 -9 -9t-9 9v166q0 10 9 10t9 -10v-166zM504 476q7 -6 0 -13q-6 -6 -13 0l-166 166q-6 7 0 13q7 7 13 0zM175 636q0 -9 -9 -9t-9 9v166q0 10 9 10t9 -10v-166zM7 463q-7 -6 -13 0 q-7 7 0 13l166 166q6 7 13 0q6 -6 0 -13zM252 427v16h20q2 0 2 1l1 7q0 2 -1 2h-22v8q0 32 2 36q4 6 10 6q3 0 6 -6q4 -7 13 -7q10 0 10 9q0 13 -19 13t-32 -13q-16 -14 -16 -40v-6h-9q-3 0 -3 -1l-1 -7q0 -2 1 -2h12l1 -56q0 -6 -5 -6h-6l-2 -1v-5q0 -1 1 -1h24h26q1 0 1 2 v3q0 2 -2 2h-7q-5 0 -5 6v40z" />
<glyph unicode="&#xfb03;" horiz-adv-x="1494" d="M1487 354q7 7 13 0q6 -6 0 -13l-166 -166q-6 -6 -13 0q-6 7 0 13zM1328 191q9 0 9 -9q0 -10 -9 -10q-30 0 -53 -21q-21 -23 -21 -53q0 -31 21 -52q22 -22 53 -22q9 0 9 -9t-9 -9q-38 0 -65.5 27t-27.5 65t27.5 65.5t65.5 27.5zM990 341q-6 7 0 13q6 7 13 0l166 -166 q6 -6 0 -13q-7 -6 -13 0zM1162 172q-9 0 -9 10q0 9 9 9q38 0 65.5 -27.5t27.5 -65.5t-27.5 -65t-65.5 -27q-9 0 -9 9t9 9q31 0 53 22q21 21 21 52q0 30 -21 53q-23 21 -53 21zM1500 476q6 -6 0 -13t-13 0l-166 166q-6 6 0 13q7 6 13 0zM1328 645q9 0 9 -10q0 -9 -9 -9 q-38 0 -65.5 27.5t-27.5 65.5t27.5 65.5t65.5 27.5q9 0 9 -10q0 -9 -9 -9q-31 0 -53 -22q-21 -21 -21 -52q0 -30 21 -53q23 -21 53 -21zM1003 463q-7 -7 -13 0t0 13l166 166q6 6 13 0q6 -7 0 -13zM1162 626q-9 0 -9 9q0 10 9 10q30 0 53 21q21 23 21 53q0 31 -21 52 q-22 22 -53 22q-9 0 -9 9q0 10 9 10q38 0 65.5 -27.5t27.5 -65.5t-27.5 -65.5t-65.5 -27.5zM1268 374q2 0 2 2v3q0 2 -2 2h-7q-3 0 -3 5v16v20v31q0 3 -2 3h-2q-2 -1 -3 -1l-28 -9l-2 -2v-2q0 -2 3 -3q9 -4 9 -12v-26v-16q-1 -4 -4 -4h-7q-2 0 -2 -2v-3q0 -2 2 -2h20h26z M1243 470q14 1 14 13q0 11 -13 11q-14 0 -14 -11q0 -13 13 -13zM821 182q0 9 9 9t9 -9v-167q0 -9 -9 -9t-9 9v167zM989 354q7 7 13 0q6 -6 0 -13l-166 -166q-6 -6 -13 0q-6 7 0 13zM655 182q0 9 9 9t9 -9v-167q0 -9 -9 -9t-9 9v167zM492 341q-6 7 0 13q6 7 13 0l166 -166 q6 -6 0 -13q-7 -6 -13 0zM839 636q0 -9 -9 -9t-9 9v166q0 10 9 10t9 -10v-166zM1002 476q7 -6 0 -13q-6 -6 -13 0l-166 166q-6 7 0 13q7 7 13 0zM673 636q0 -9 -9 -9t-9 9v166q0 10 9 10t9 -10v-166zM505 463q-7 -6 -13 0q-7 7 0 13l166 166q6 7 13 0q6 -6 0 -13zM750 427 v16h20q2 0 2 1l1 7q0 2 -1 2h-22v8q0 32 2 36q4 6 10 6q3 0 6 -6q4 -7 13 -7q10 0 10 9q0 13 -19 13t-32 -13q-16 -14 -16 -40v-6h-9q-3 0 -3 -1l-1 -7q0 -2 1 -2h12l1 -56q0 -6 -5 -6h-6l-2 -1v-5q0 -1 1 -1h24h26q1 0 1 2v3q0 2 -2 2h-7q-5 0 -5 6v40zM323 182q0 9 9 9 t9 -9v-167q0 -9 -9 -9t-9 9v167zM491 354q7 7 13 0q6 -6 0 -13l-166 -166q-6 -6 -13 0q-6 7 0 13zM157 182q0 9 9 9t9 -9v-167q0 -9 -9 -9t-9 9v167zM-6 341q-6 7 0 13q6 7 13 0l166 -166q6 -6 0 -13q-7 -6 -13 0zM341 636q0 -9 -9 -9t-9 9v166q0 10 9 10t9 -10v-166z M504 476q7 -6 0 -13q-6 -6 -13 0l-166 166q-6 7 0 13q7 7 13 0zM175 636q0 -9 -9 -9t-9 9v166q0 10 9 10t9 -10v-166zM7 463q-7 -6 -13 0q-7 7 0 13l166 166q6 7 13 0q6 -6 0 -13zM252 427v16h20q2 0 2 1l1 7q0 2 -1 2h-22v8q0 32 2 36q4 6 10 6q3 0 6 -6q4 -7 13 -7 q10 0 10 9q0 13 -19 13t-32 -13q-16 -14 -16 -40v-6h-9q-3 0 -3 -1l-1 -7q0 -2 1 -2h12l1 -56q0 -6 -5 -6h-6l-2 -1v-5q0 -1 1 -1h24h26q1 0 1 2v3q0 2 -2 2h-7q-5 0 -5 6v40z" />
<glyph unicode="&#xfb04;" horiz-adv-x="1494" d="M990 174q-6 6 0 13t13 0l166 -166q6 -6 0 -13q-7 -6 -13 0zM990 341q-6 7 0 13q6 7 13 0l83 -83q7 -7 0 -14q-6 -6 -13 0zM1003 174q-7 -7 -13 0q-6 6 0 13l83 84q7 6 13 0q7 -7 0 -13zM1487 187q7 7 13 0t0 -13l-166 -166q-6 -6 -13 0q-6 7 0 13zM1487 354q7 7 13 0 q6 -6 0 -13l-83 -84q-7 -6 -13 0q-7 7 0 14zM1500 187q6 -7 0 -13q-6 -7 -13 0l-83 84q-7 6 0 13q6 6 13 0zM1003 630q-7 -7 -13 0q-6 6 0 13l166 166q6 6 13 0q6 -7 0 -13zM1003 463q-7 -7 -13 0t0 13l83 84q7 6 13 0q7 -7 0 -14zM990 630q-6 6 0 13t13 0l83 -83 q7 -7 0 -14q-6 -6 -13 0zM1500 643q6 -7 0 -13q-6 -7 -13 0l-166 166q-6 6 0 13q7 6 13 0zM1500 476q6 -6 0 -13t-13 0l-83 83q-7 7 0 14q6 6 13 0zM1487 643q7 7 13 0t0 -13l-83 -84q-7 -6 -13 0q-7 7 0 14zM1264 412v35v62q0 3 -2 3t-4 -1q-8 -5 -33 -11l-2 -1v-3 q0 -2 2 -2l3 -1q10 -3 10 -11q1 -5 1 -34v-59q0 -8 -5 -8h-6q-3 0 -3 -2v-3q0 -2 2 -2h25h24q1 0 1 2v3q0 2 -2 2h-6q-5 0 -5 6v25zM821 182q0 9 9 9t9 -9v-167q0 -9 -9 -9t-9 9v167zM989 354q7 7 13 0q6 -6 0 -13l-166 -166q-6 -6 -13 0q-6 7 0 13zM655 182q0 9 9 9t9 -9 v-167q0 -9 -9 -9t-9 9v167zM492 341q-6 7 0 13q6 7 13 0l166 -166q6 -6 0 -13q-7 -6 -13 0zM839 636q0 -9 -9 -9t-9 9v166q0 10 9 10t9 -10v-166zM1002 476q7 -6 0 -13q-6 -6 -13 0l-166 166q-6 7 0 13q7 7 13 0zM673 636q0 -9 -9 -9t-9 9v166q0 10 9 10t9 -10v-166z M505 463q-7 -6 -13 0q-7 7 0 13l166 166q6 7 13 0q6 -6 0 -13zM750 427v16h20q2 0 2 1l1 7q0 2 -1 2h-22v8q0 32 2 36q4 6 10 6q3 0 6 -6q4 -7 13 -7q10 0 10 9q0 13 -19 13t-32 -13q-16 -14 -16 -40v-6h-9q-3 0 -3 -1l-1 -7q0 -2 1 -2h12l1 -56q0 -6 -5 -6h-6l-2 -1v-5 q0 -1 1 -1h24h26q1 0 1 2v3q0 2 -2 2h-7q-5 0 -5 6v40zM323 182q0 9 9 9t9 -9v-167q0 -9 -9 -9t-9 9v167zM491 354q7 7 13 0q6 -6 0 -13l-166 -166q-6 -6 -13 0q-6 7 0 13zM157 182q0 9 9 9t9 -9v-167q0 -9 -9 -9t-9 9v167zM-6 341q-6 7 0 13q6 7 13 0l166 -166q6 -6 0 -13 q-7 -6 -13 0zM341 636q0 -9 -9 -9t-9 9v166q0 10 9 10t9 -10v-166zM504 476q7 -6 0 -13q-6 -6 -13 0l-166 166q-6 7 0 13q7 7 13 0zM175 636q0 -9 -9 -9t-9 9v166q0 10 9 10t9 -10v-166zM7 463q-7 -6 -13 0q-7 7 0 13l166 166q6 7 13 0q6 -6 0 -13zM252 427v16h20q2 0 2 1 l1 7q0 2 -1 2h-22v8q0 32 2 36q4 6 10 6q3 0 6 -6q4 -7 13 -7q10 0 10 9q0 13 -19 13t-32 -13q-16 -14 -16 -40v-6h-9q-3 0 -3 -1l-1 -7q0 -2 1 -2h12l1 -56q0 -6 -5 -6h-6l-2 -1v-5q0 -1 1 -1h24h26q1 0 1 2v3q0 2 -2 2h-7q-5 0 -5 6v40z" />
</font>
</defs>
</svg>
